<?xml version="1.0" encoding="utf-8"?>
<!-- Generated by IcoMoon.io -->
<!DOCTYPE svg PUBLIC "-//W3C//DTD SVG 1.1//EN" "http://www.w3.org/Graphics/SVG/1.1/DTD/svg11.dtd">
<svg version="1.1" xmlns="http://www.w3.org/2000/svg" xmlns:xlink="http://www.w3.org/1999/xlink" width="19" height="20" viewBox="0 0 19 20">
<path fill="#ffffff" d="M18.75 16.25l-4.866-4.866c0.695-1.134 1.116-2.455 1.116-3.884 0-4.141-3.359-7.5-7.5-7.5s-7.5 3.359-7.5 7.5c0 4.141 3.359 7.5 7.5 7.5 1.429 0 2.75-0.421 3.884-1.113l4.866 4.863c0.342 0.342 0.908 0.339 1.25 0l1.25-1.25c0.342-0.342 0.342-0.908 0-1.25zM7.5 12.5c-2.761 0-5-2.239-5-5s2.239-5 5-5 5 2.239 5 5-2.239 5-5 5z"></path>
</svg>
