<?xml version="1.0" encoding="utf-8"?>
<!-- Generator: Adobe Illustrator 15.1.0, SVG Export Plug-In  -->
<!DOCTYPE svg PUBLIC "-//W3C//DTD SVG 1.1//EN" "http://www.w3.org/Graphics/SVG/1.1/DTD/svg11.dtd" [
	<!ENTITY ns_flows "http://ns.adobe.com/Flows/1.0/">
]>
<svg version="1.1"
	 xmlns="http://www.w3.org/2000/svg" xmlns:xlink="http://www.w3.org/1999/xlink" xmlns:a="http://ns.adobe.com/AdobeSVGViewerExtensions/3.0/"
	 x="0px" y="0px" width="512px" height="512px" viewBox="0 0 512 512" enable-background="new 0 0 512 512" xml:space="preserve">
<defs>
</defs>
<g>
	<defs>
		<rect id="SVGID_19_" width="512" height="512"/>
	</defs>
	<clipPath id="SVGID_20_">
		<use xlink:href="#SVGID_19_"  overflow="visible"/>
	</clipPath>
</g>
<g>
	<defs>
		<rect id="SVGID_18_" width="512" height="512"/>
	</defs>
	<clipPath id="SVGID_21_">
		<use xlink:href="#SVGID_18_"  overflow="visible"/>
	</clipPath>
	<path clip-path="url(#SVGID_21_)" fill="#327477" d="M382.3,126c0-3.9-3.2-7.1-7.1-7.1H136.8c-3.9,0-7.1,3.2-7.1,7.1v279.2
		c0,3.9,3.2,7.1,7.1,7.1h238.4c3.9,0,7.1-3.2,7.1-7.1L382.3,126L382.3,126z"/>
</g>
<g>
	<defs>
		<rect id="SVGID_17_" width="512" height="512"/>
	</defs>
	<clipPath id="SVGID_22_">
		<use xlink:href="#SVGID_17_"  overflow="visible"/>
	</clipPath>
	<path clip-path="url(#SVGID_22_)" fill="#3B7F89" d="M382.3,106.8c0-3.9-3.2-7.1-7.1-7.1h-225l0,263.6h225c3.9,0,7.1-3.2,7.1-7.1
		V106.8z"/>
</g>
<g>
	<defs>
		<rect id="SVGID_16_" width="512" height="512"/>
	</defs>
	<clipPath id="SVGID_23_">
		<use xlink:href="#SVGID_16_"  overflow="visible"/>
	</clipPath>
	<rect x="147.4" y="99.7" clip-path="url(#SVGID_23_)" fill="#4699A1" width="4.3" height="267.3"/>
</g>
<g>
	<defs>
		<rect id="SVGID_15_" width="512" height="512"/>
	</defs>
	<clipPath id="SVGID_24_">
		<use xlink:href="#SVGID_15_"  overflow="visible"/>
	</clipPath>
	<path clip-path="url(#SVGID_24_)" fill="#2A646E" d="M148.1,412.3h-11.3c-3.9,0-7.1-3.2-7.1-7.1V106.8c0-3.9,3.2-7.1,7.1-7.1h11.3
		V412.3z"/>
</g>
<g>
	<defs>
		<rect id="SVGID_14_" width="512" height="512"/>
	</defs>
	<clipPath id="SVGID_25_">
		<use xlink:href="#SVGID_14_"  overflow="visible"/>
	</clipPath>
	<path clip-path="url(#SVGID_25_)" fill="#E9E9EA" d="M369.5,363.4H154c-7.4,0-13.3,6-13.3,13.3v8.7c0,7.3,6,13.3,13.3,13.3h202.2
		c7.3,0,13.3-6,13.3-13.3V363.4z"/>
</g>
<g>
	<defs>
		<rect id="SVGID_13_" width="512" height="512"/>
	</defs>
	<clipPath id="SVGID_26_">
		<use xlink:href="#SVGID_13_"  overflow="visible"/>
	</clipPath>
	<path clip-path="url(#SVGID_26_)" fill="#DBB595" d="M432.8,430L419,403.4c-2.7-24.3-3.7-38.7-11.6-63.9
		c-8.1-25.6-27.9-65.4-27.9-65.4l-22,2.9l-40.4,9.5l-48.7,21.7l35.1,87.5c0,0,27.4,34.5,32.9,40.9l21.1,45.9
		C385.8,469.7,411.3,451.8,432.8,430z"/>
</g>
<g>
	<defs>
		<rect id="SVGID_12_" width="512" height="512"/>
	</defs>
	<clipPath id="SVGID_27_">
		<use xlink:href="#SVGID_12_"  overflow="visible"/>
	</clipPath>
	<path clip-path="url(#SVGID_27_)" fill="#DBB595" d="M290,324.8c-6.8,3-15-0.7-18.3-8.3l-41.2-95.4c-3-6.9-0.5-14.7,5.7-17.4
		c6.1-2.7,13.6,0.7,16.6,7.6l44.4,93.6C300.5,312.4,296.8,321.8,290,324.8z"/>
</g>
<g>
	<defs>
		<rect id="SVGID_11_" width="512" height="512"/>
	</defs>
	<clipPath id="SVGID_28_">
		<use xlink:href="#SVGID_11_"  overflow="visible"/>
	</clipPath>
	<path clip-path="url(#SVGID_28_)" fill="#DBB595" d="M318.9,312.7c-7.1,3-16.1,0.2-19.3-7.4l-46.2-114.7
		c-2.9-6.9-0.1-14.7,6.4-17.5c6.4-2.7,14,0.7,16.9,7.6l50.4,112.4C330.4,300.7,326,309.7,318.9,312.7z"/>
</g>
<g>
	<defs>
		<rect id="SVGID_10_" width="512" height="512"/>
	</defs>
	<clipPath id="SVGID_29_">
		<use xlink:href="#SVGID_10_"  overflow="visible"/>
	</clipPath>
	<path clip-path="url(#SVGID_29_)" fill="#DBB595" d="M355.9,280.6c3.1,7.7-1.6,16.7-8.5,19.5c-6.9,2.8-15.8-0.7-18.9-8.4
		l-37.6-94.9c-3.1-7.7-0.1-16.2,6.8-19c6.9-2.8,15,1.2,18.1,8.8L355.9,280.6z"/>
</g>
<g>
	<defs>
		<rect id="SVGID_9_" width="512" height="512"/>
	</defs>
	<clipPath id="SVGID_30_">
		<use xlink:href="#SVGID_9_"  overflow="visible"/>
	</clipPath>
	<path clip-path="url(#SVGID_30_)" fill="#DBB595" d="M376.7,291.1c-6.5,2.5-15.6-1-18.7-8.7l-18.8-55.6c-2.6-6.7-0.2-13.9,5.5-16.1
		c5.6-2.2,12.3,1.4,14.9,8.1l19.2,54.2C381.9,280.7,383.2,288.6,376.7,291.1z"/>
</g>
<g>
	<defs>
		<rect id="SVGID_8_" width="512" height="512"/>
	</defs>
	<clipPath id="SVGID_31_">
		<use xlink:href="#SVGID_8_"  overflow="visible"/>
	</clipPath>
	<path clip-path="url(#SVGID_31_)" fill="#DBB595" d="M310.3,400.1c0,0-26.2-16.3-39.6-24c-6.8-4-15.3-19.1-25.8-32.5
		c-10-12.9-22.6-22.2-21.3-27.3c3.6-14.1,23.7-4.7,26-3.4c19.4,10.9,37.6,34.5,37.6,34.5l32.8,9L310.3,400.1z"/>
</g>
<g>
	<defs>
		<rect id="SVGID_7_" width="512" height="512"/>
	</defs>
	<clipPath id="SVGID_32_">
		<use xlink:href="#SVGID_7_"  overflow="visible"/>
	</clipPath>
	<path clip-path="url(#SVGID_32_)" fill="#E8C7AF" d="M238.3,335.8c0,0-1.7-18.8-15.5-21.9C222.8,313.9,217.1,317.9,238.3,335.8z"/>
</g>
<g>
	<defs>
		<rect id="SVGID_6_" width="512" height="512"/>
	</defs>
	<clipPath id="SVGID_33_">
		<use xlink:href="#SVGID_6_"  overflow="visible"/>
	</clipPath>
	<path clip-path="url(#SVGID_33_)" fill="#E8C7AF" d="M341,223.1c2.1,6,6.1,6.5,10.2,5.1c4.2-1.5,6.9-4.4,4.8-10.3
		c-0.1-0.4-0.7-2.4-0.9-2.8c-2.5-5.6-6.5-7-10.4-5.7c-4,1.4-6.2,5.4-4.4,11.4C340.4,221,340.9,222.8,341,223.1z"/>
</g>
<g>
	<defs>
		<rect id="SVGID_5_" width="512" height="512"/>
	</defs>
	<clipPath id="SVGID_34_">
		<use xlink:href="#SVGID_5_"  overflow="visible"/>
	</clipPath>
	<path clip-path="url(#SVGID_34_)" fill="#E8C7AF" d="M293.6,193.4c2.7,7,7.5,7.5,12.5,5.5c5-1.9,8.3-5.5,5.6-12.5
		c-0.2-0.5-0.9-2.8-1.1-3.3c-3.1-6.6-8.1-8-12.7-6.2c-4.8,1.8-7.4,6.7-5.1,13.7C292.9,191,293.5,193.1,293.6,193.4z"/>
</g>
<g>
	<defs>
		<rect id="SVGID_4_" width="512" height="512"/>
	</defs>
	<clipPath id="SVGID_35_">
		<use xlink:href="#SVGID_4_"  overflow="visible"/>
	</clipPath>
	<path clip-path="url(#SVGID_35_)" fill="#E8C7AF" d="M255.9,189.2c3.2,6.9,8.1,7.1,12.9,4.9c4.9-2.3,7.9-6.1,4.7-13
		c-0.2-0.5-1.1-2.8-1.4-3.3c-3.6-6.4-8.7-7.6-13.2-5.5c-4.6,2.1-6.9,7.3-4.1,14.2C255,186.8,255.8,188.9,255.9,189.2z"/>
</g>
<g>
	<defs>
		<rect id="SVGID_3_" width="512" height="512"/>
	</defs>
	<clipPath id="SVGID_36_">
		<use xlink:href="#SVGID_3_"  overflow="visible"/>
	</clipPath>
	<path clip-path="url(#SVGID_36_)" fill="#E8C7AF" d="M232.5,219.6c3,6.6,7.9,6.6,12.7,4.4c4.9-2.2,7.9-6,4.9-12.5
		c-0.2-0.5-1-2.6-1.3-3.1c-3.4-6.1-8.4-7.1-12.9-5c-4.6,2.1-7,7.1-4.3,13.7C231.7,217.3,232.4,219.3,232.5,219.6z"/>
</g>
<g>
	<defs>
		<rect id="SVGID_2_" width="512" height="512"/>
	</defs>
	<clipPath id="SVGID_37_">
		<use xlink:href="#SVGID_2_"  overflow="visible"/>
	</clipPath>
	<path clip-path="url(#SVGID_37_)" fill="#CEA98D" d="M295.2,364.5c0,0-6.8-9.9-10.3-16.2c-3.5-6.1-10.8-25.9-10.8-25.9
		s8.1,17.5,12.6,24.9c4.5,7.4,10,15.3,10,15.3L295.2,364.5z"/>
</g>
<g>
	<defs>
		<rect id="SVGID_1_" width="512" height="512"/>
	</defs>
	<clipPath id="SVGID_38_">
		<use xlink:href="#SVGID_1_"  overflow="visible"/>
	</clipPath>
</g>
</svg>
