<?xml version="1.0" ?><svg height="512" id="Layer_1" version="1.1" viewBox="0 0 512.00003 512" width="512" xml:space="preserve" xmlns="http://www.w3.org/2000/svg" xmlns:cc="http://creativecommons.org/ns#" xmlns:dc="http://purl.org/dc/elements/1.1/" xmlns:rdf="http://www.w3.org/1999/02/22-rdf-syntax-ns#" xmlns:svg="http://www.w3.org/2000/svg"><defs id="defs7"/><g id="g2989"><g id="g2987" transform="matrix(0.96,0,0,0.96,10.239715,10.239723)"><g id="g16588" transform="matrix(0.89826306,0,0,0.89826306,15592.452,-11858.5)"><path d="m -17072.094,13786.812 c -33.773,0.05 -66.636,9.236 -99.75,16.219 -0.08,6.06 -0.468,33.657 -0.468,33.657 -0.633,0.309 -1.327,0.527 -1.907,0.937 -2.673,1.892 -4.413,4.603 -5.5,7.344 -2.174,5.483 -2.437,11.52 -2.437,19.219 0,24.355 14.048,47.487 27.968,61.062 10.903,40.268 42.481,70.532 80.782,71.656 38.302,-1.124 69.784,-31.388 80.687,-71.656 13.919,-13.575 27.938,-36.707 27.938,-61.062 0,-7.7 -0.234,-13.736 -2.407,-19.219 -1.087,-2.741 -2.858,-5.452 -5.531,-7.344 -0.58,-0.41 -1.276,-0.628 -1.906,-0.937 0,0 1.924,-16.828 -0.03,-33.376 -26,-5.576 -51.838,-12.916 -78.156,-15.468 -6.46,-0.72 -12.895,-1.041 -19.282,-1.032 z m -77.656,178.219 c -5.572,2.148 -73.037,28.265 -91.75,40.844 -19.515,13.118 -31.546,27.941 -41.938,50.469 -10.388,22.529 -16.874,48.642 -16.874,72.5 0,2.863 1.793,5.675 4.406,6.844 50.79,22.72 136.664,28.774 192.344,30.187 0.219,-10.387 0.536,-20.775 0.281,-31.094 -4.376,-0.539 -8.768,0.364 -13.157,0.125 -11.203,1.749 -24.528,-2.509 -29.312,-13.562 -2.629,-12.277 -4.425,-26.872 3,-37.938 9.436,-11.561 26.314,-8.94 39.531,-8.437 0.387,-10.198 -1.71,-20.52 0.25,-30.625 1.059,-12.506 14.038,-19.784 25.688,-19 9.094,-0.272 19.409,-0.498 26.593,5.937 10.365,11.517 7.164,28.607 7,42.813 2.995,1.547 8.964,0 13.063,0.468 11.224,-1.885 24.393,2.289 29.375,13.219 2.896,12.344 4.543,27.188 -2.938,38.375 -9.536,11.204 -26.131,8.812 -39.25,8.313 -0.218,10.468 -0.125,20.935 -0.03,31.406 55.685,-1.409 141.649,-7.454 192.469,-30.187 2.609,-1.169 4.406,-3.981 4.406,-6.844 0,-23.858 -6.486,-49.971 -16.875,-72.5 -10.389,-22.528 -22.39,-37.351 -41.906,-50.469 -18.624,-12.519 -85.556,-38.417 -91.687,-40.781 -15.68,23.298 -40.435,40.54 -68.688,43.594 -33.627,3.521 -65.747,-16.474 -84,-43.657 z" id="path7-0-5-14-71-5-3-9" style="font-size:medium;font-style:normal;font-variant:normal;font-weight:normal;font-stretch:normal;text-indent:0;text-align:start;text-decoration:none;line-height:normal;letter-spacing:normal;word-spacing:normal;text-transform:none;direction:ltr;block-progression:tb;writing-mode:lr-tb;text-anchor:start;baseline-shift:baseline;color:#000000;fill:#37484a;fill-opacity:1;stroke:none;stroke-width:16.00000191;marker:none;visibility:visible;display:inline;overflow:visible;enable-background:accumulate;font-family:Sans;-inkscape-font-specification:Sans" transform="translate(0,-448)"/><path d="m -16878.063,13318.468 c -2.081,-16.813 -18.826,-25.018 -33.183,-29.898 -20.437,-6.947 -42.723,-9.127 -64.302,-10.255 -3.626,-20.671 -10.019,-42.043 -27.324,-55.245 -19.329,-14.746 -46.887,-15.024 -70.097,-14.697 -0.155,0 -0.31,-0.03 -0.468,-0.03 -23.306,-0.335 -51.105,-0.153 -70.565,14.692 -17.306,13.203 -23.701,34.577 -27.326,55.249 -21.631,1.155 -43.716,3.483 -64.3,10.246 -14.921,4.904 -31.146,13.447 -33.269,30.589 -0.836,6.757 3.803,13.984 8.406,18.567 4.651,4.631 10.917,7.447 17.215,8.992 15.98,3.923 33.386,1.08 49.304,-1.641 39.915,-6.823 79.247,-19.904 120.045,-20.284 0.163,0 0.32,0.03 0.489,0.03 41.327,0.282 81.225,13.572 121.653,20.483 15.913,2.72 32.983,5.184 48.917,1.272 12.089,-2.967 26.534,-14.099 24.805,-28.067 z" id="path17725" style="fill:#37484a;fill-opacity:1"/><g id="g16549" transform="translate(-77.750375,-192.80189)"><rect height="173.25851" id="rect16542" rx="8" ry="8" style="fill:#1b8e99;fill-opacity:1;fill-rule:nonzero;stroke:none" transform="translate(0,-448)" width="32" x="-17011.703" y="14232.442"/><rect height="120" id="rect16546" rx="8" ry="8" style="fill:#1b8e99;fill-opacity:1;fill-rule:nonzero;stroke:none" transform="matrix(0,1,-1,0,0,0)" width="32" x="13833.473" y="16935.703"/></g></g></g></g></svg>