<?xml version="1.0" encoding="utf-8"?>
<!-- Generator: Adobe Illustrator 15.1.0, SVG Export Plug-In . SVG Version: 6.00 Build 0)  -->
<!DOCTYPE svg PUBLIC "-//W3C//DTD SVG 1.1//EN" "http://www.w3.org/Graphics/SVG/1.1/DTD/svg11.dtd">
<svg version="1.1" id="Layer_1" xmlns="http://www.w3.org/2000/svg" xmlns:xlink="http://www.w3.org/1999/xlink" x="0px" y="0px"
	 width="512px" height="512px" viewBox="-192 -384 512 512" enable-background="new -192 -384 512 512" xml:space="preserve">
<g>
	<path fill="#E6E6E6" d="M-54.46-82.726c-4.157,0-8.339-1.431-11.479-4.267c-26.289-23.783-47.976-74.887,0-118.291
		C6.35-270.701,9.596-335.748,9.596-336.373c0-7.789,7.157-14.092,16.015-14.092c15.379,0,29.338,11.037,41.439,32.804
		c27.648,49.761,42.7,152.612-12.787,215.394c-5.446,6.138-15.514,7.232-22.457,2.466c-6.997-4.777-68.754,7.652-75.1,13.074
		C-46.406-84.045-50.425-82.726-54.46-82.726z"/>
	<g>
		<path fill="#D9D9D9" d="M-62.51-86.715c-0.489,0.417-1.033,0.741-1.564,1.095c2.844,1.894,6.221,2.895,9.609,2.895
			c4.034,0,8.05-1.319,11.166-3.99c4.341-3.711,34.589-10.686,55.518-13.207C4.057-104.248-56.233-92.071-62.51-86.715z"/>
		<path fill="#D9D9D9" d="M67.05-317.66c-12.102-21.768-26.045-32.804-41.439-32.804c-2.99,0-5.746,0.766-8.142,2.012
			c11.063,4.082,21.228,14.375,30.358,30.792c27.64,49.761,42.699,152.606-12.786,215.394c-0.911,1.012-1.962,1.839-3.068,2.571
			c6.943,4.63,16.889,3.517,22.285-2.571C109.75-165.042,94.698-267.899,67.05-317.66z"/>
	</g>
	<path fill="#D9D9D9" d="M54.263-102.267c19.524-22.089,30.289-49.141,34.868-77.093C57.159-151.3,4.313-108.089-22.432-108.089
		c-5.055,0-11.01-4.591-17.315-9.48c-8.705-6.732-23.404-15.643-44.761-15.643c-2.799,0-5.526,0.252-8.166,0.715
		c4.034,18.572,14.913,34.812,26.736,45.505c3.139,2.836,7.321,4.267,11.479,4.267c4.035,0,8.054-1.319,11.167-3.99
		c6.346-5.423,68.103-17.852,75.1-13.074C38.75-95.034,48.817-96.129,54.263-102.267z"/>
	<path fill="#EDEDED" d="M255.89-104.275c40.835-58.675,44.238-145.052,8.321-210.08c-2.517-4.58-7.626-7.598-13.439-7.898
		c-5.841-0.457-11.272,2.13-14.413,6.404c-34.242,46.497-66.932,75.794-108.33,112.879l-20.28,18.244
		c-24.022,21.748-97.089,87.911-130.18,87.911c-5.055,0-11.01-4.592-17.315-9.48c-8.705-6.732-23.404-15.644-44.761-15.644
		c-22.842,0-41.367,16.303-41.367,36.4s18.524,36.402,41.367,36.402c3.71,0,7.285-0.469,10.703-1.277
		c6.021,8.053,7.495,18.968,12.621,29.569c9.755,20.18,22.926,47.367,76.226,50.543c0.813,1.738,1.588,3.5,2.377,5.262
		c16.142,35.833,37.53,65.502,136.305,65.502c25.781,0,46.104-4.007,60.328-11.918c14.544-8.073,22.564-20.118,22.564-33.934
		c0-27.633-31.896-52.787-66.877-52.787c-31.74,0-54.316-11.039-61.554-29.032C189.781-33.505,233.382-71.937,255.89-104.275z"/>
	<path fill="#D9D9D9" d="M-92.649-49.853c-0.135-0.181-0.238-0.374-0.373-0.561c-0.403,0.094-0.819,0.12-1.222,0.219
		C-93.713-50.078-93.193-49.952-92.649-49.853z"/>
	<path fill="#D9D9D9" d="M-58.963-106.295c14.49,13.354,32.081,10.915,36.531,9.48c-8.161-1.405-13.74-6.706-17.315-9.48
		c-8.705-6.732-23.404-15.644-44.761-15.644c-2.996,0-5.918,0.296-8.729,0.826C-77.508-118.823-65.573-112.394-58.963-106.295z"/>
	<path fill="#D9D9D9" d="M255.89-104.275c40.835-58.675,44.238-145.052,8.321-210.08c-2.517-4.58-7.626-7.598-13.439-7.898
		c-3.928-0.309-7.605,0.839-10.584,2.881c2.002,1.318,3.69,2.98,4.805,5.029c35.919,65.016,32.518,151.393-8.319,210.084
		c-22.508,32.328-66.107,70.777-147.705,77.063c7.257,17.988,29.813,29.025,61.554,29.025c34.994,0,66.877,25.156,66.877,52.788
		c0,13.8-8.019,25.859-22.563,33.937c-12.742,7.077-30.414,11.007-52.489,11.756c3.684,0.106,7.45,0.154,11.377,0.154
		c25.781,0,46.104-4.007,60.328-11.91c14.544-8.081,22.564-20.126,22.564-33.937c0-27.632-31.896-52.788-66.877-52.788
		c-31.74,0-54.316-11.037-61.554-29.025C189.781-33.505,233.382-71.937,255.89-104.275z"/>
	<path fill="#E78244" d="M-125.094-78.464l-36.684,28.413c0,0,40.418-9.842,46.024-11.075
		C-108.83-68.282-117.533-78.464-125.094-78.464z"/>
	<path fill="#2D4452" d="M-97.319-96.464c3.537,0,6.405,2.526,6.405,5.636c0,3.115-2.869,5.638-6.405,5.638
		c-3.539,0-6.406-2.522-6.406-5.638C-103.725-93.938-100.857-96.464-97.319-96.464z"/>
</g>
</svg>
