<?xml version="1.0" encoding="utf-8"?>
<!-- Generator: Adobe Illustrator 15.1.0, SVG Export Plug-In  -->
<!DOCTYPE svg PUBLIC "-//W3C//DTD SVG 1.1//EN" "http://www.w3.org/Graphics/SVG/1.1/DTD/svg11.dtd" [
	<!ENTITY ns_flows "http://ns.adobe.com/Flows/1.0/">
]>
<svg version="1.1"
	 xmlns="http://www.w3.org/2000/svg" xmlns:xlink="http://www.w3.org/1999/xlink" xmlns:a="http://ns.adobe.com/AdobeSVGViewerExtensions/3.0/"
	 x="0px" y="0px" width="512px" height="512px" viewBox="205.008 229.449 512 512" enable-background="new 205.008 229.449 512 512"
	 xml:space="preserve">
<defs>
</defs>
<g>
	<defs>
		<rect id="SVGID_1_" x="81.528" y="230.398" width="714.972" height="510.882"/>
	</defs>
	<clipPath id="SVGID_16_">
		<use xlink:href="#SVGID_1_"  overflow="visible"/>
	</clipPath>
	<g opacity="0.8" clip-path="url(#SVGID_16_)">
		<g>
			<defs>
				<rect id="SVGID_15_" x="533.834" y="266.041" width="319.436" height="229.038"/>
			</defs>
			<clipPath id="SVGID_17_">
				<use xlink:href="#SVGID_15_"  overflow="visible"/>
			</clipPath>
			<path clip-path="url(#SVGID_17_)" fill="#C60000" d="M853.27,314.173c-40.521,16.033-119.266,45.43-133.263,53.4
				c-15.298,8.702-11.484,17.826-17.169,27.278c-5.7,9.455-12.938,14.767-17.094,17.391c-3.063,1.932-6.899,4.973-9.384,7.181
				c-3.339,3.417-8.201,9.824-10.154,17.251c-4.993,14.586-3.8,16.132-8.926,30.509c-0.914,2.559-1.821,7.908-2.885,11.409
				c-3.451,8.236-5.688,14.214-11.519,12.52c-6.095-1.768-4.479-6.574-3.315-12.239c1.702-8.277,1.998-7.006,4.101-15.307
				c1.378-5.452,1.76-10.275,2.936-15.769c0.487-4.168,0.921-8.19,1.742-11.813c0.75-3.341-1.612-6.856-2.481-6.679
				c-1.155,0.242-2.534,3.05-3.732,4.962c-3.837,6.081-8.704,17.444-9.912,20.053c-3.377,7.32-5.686,8.362-9.234,15.37
				c-2.385,4.716-5.536,11.422-8.791,16.806c-3.91,6.457-7.178,11.173-13.954,6.997c-7.738-4.774,4.797-20.09,8.083-28.29
				c4.447-11.121,5.616-15.228,10.108-24.465c3.559-7.325,9.233-14.459,6.898-20.127c-0.54-1.296-1.771-4.154-4.271-3.275
				c-4.083,1.44-11.42,10.483-18.891,15.249c-14.295,9.101-8.738,6.909-21.305,14.892c-5.292,3.322-23.084,24.174-29.063,11.225
				c-4.932-10.688,11.769-18.302,18.672-24.231c3.882-3.338,12.966-12.27,18.795-16.32c3.987-2.764,7.965-7.861,21.451-18.077
				c-3.281-2.567-2.982-4.342-8.444-2.975c-8.144,2.023-12.017,5.706-20.818,8.709c-5.879,3.469-13.624,5.785-18.235,8.209
				c-6.409,3.811-24.138,16.543-28.646,7.166c-4.745-9.896,14.814-17.204,21.164-21.548c8.584-5.872,10.856-8.141,18.085-12.14
				c9.708-5.369,21.736-10.039,31.835-17.33c2.884-1.794,6.02-3.299,8.504-5.284c7.624-6.128,14.236-13.025,13.43-20.277
				c-0.314-2.763-3.563-6.445-5.289-8.438c-6.094-4.199-13.237-6.202-18.828-7.626c-8.362-2.124-21.563-7.695-24.944-17.881
				c-0.54-1.64-1.378-5.423,1.604-7.506c0.633-0.445,3.827-0.9,12.871,3.786c1.962,0.761,4.795,1.508,12.408,2.378
				c2.698,0.307,4.338,1.734,6.712,2.331c5.17,0.773,10.861,2.513,15.891,3.297c7.804,1.232,11.626,0.178,22.265,4.336
				c13.293,5.191,16.563,1.256,31.797,10.463c15.24,9.208,17.732,8.826,31.249,1.922c15.271-7.796,80.617-45.346,116.845-65.627
				l0.06,0.053L853.27,314.173z"/>
		</g>
	</g>
	<g opacity="0.8" clip-path="url(#SVGID_16_)">
		<g>
			<defs>
				<rect id="SVGID_14_" x="549.755" y="401.479" width="362.609" height="159.774"/>
			</defs>
			<clipPath id="SVGID_18_">
				<use xlink:href="#SVGID_14_"  overflow="visible"/>
			</clipPath>
			<path clip-path="url(#SVGID_18_)" fill="#F90200" d="M912.365,467.313c-27.012,3.149-49.249,5.732-58.315,7.041
				c-22.854,3.299-135.166,4.554-149.988,8.136c-13.623,3.282-12.594,11.163-18.974,17.184c-6.369,6.009-13.06,8.486-16.817,9.577
				c-2.765,0.804-6.364,2.294-8.749,3.436c-3.277,1.887-8.372,5.731-11.435,11.025c-6.916,10.128-6.317,11.579-13.292,21.518
				c-1.245,1.767-3.065,5.688-4.619,8.153c-4.392,5.569-7.368,9.677-11.51,7.071c-4.33-2.732-2.074-6.074,0.014-10.18
				c3.055-6.001,3.01-4.953,6.374-10.877c2.21-3.895,3.52-7.534,5.575-11.498c1.257-3.109,2.436-6.108,3.816-8.721
				c1.289-2.412,0.199-5.646-0.502-5.699c-0.945-0.077-2.594,1.777-3.918,2.979c-4.241,3.841-10.38,11.502-11.851,13.244
				c-4.146,4.893-6.137,5.178-10.348,9.786c-2.829,3.097-6.667,7.568-10.311,10.983c-4.368,4.103-7.877,7.01-12.225,2.27
				c-4.956-5.408,7.914-14.414,12.17-19.998c5.769-7.575,7.528-10.478,12.93-16.594c4.283-4.847,10.158-9.08,9.546-13.977
				c-0.14-1.114-0.495-3.594-2.607-3.477c-3.443,0.198-11,5.532-17.76,7.521c-12.928,3.819-8.184,3.377-19.548,6.714
				c-4.777,1.379-22.875,13.472-24.763,2.15c-1.558-9.338,12.918-11.478,19.484-14.501c3.688-1.701,12.567-6.557,17.912-8.37
				c3.651-1.241,7.789-4.279,20.332-9.131c-1.993-2.723-1.389-4.017-5.885-4.192c-6.707-0.261-10.46,1.718-17.872,2.057
				c-5.268,1.36-11.722,1.414-15.791,2.248c-5.736,1.5-22.074,7.349-23.579-0.888c-1.583-8.696,15.03-9.947,20.836-11.872
				c7.847-2.605,10.076-3.847,16.488-5.312c8.612-1.964,18.864-2.876,28.178-6.229c2.606-0.743,5.335-1.197,7.668-2.174
				c7.164-3.018,13.709-6.851,14.61-12.629c0.341-2.198-1.396-5.764-2.305-7.679c-3.821-4.606-8.907-7.751-12.914-10.094
				c-5.999-3.513-15.003-10.766-15.474-19.372c-0.075-1.383,0.076-4.485,2.809-5.423c0.581-0.2,3.144,0.163,9.131,5.795
				c1.354,1.03,3.379,2.237,9.064,4.61c2.013,0.845,2.978,2.309,4.682,3.305c3.822,1.749,7.848,4.365,11.556,6.095
				c5.767,2.694,8.927,2.737,16.249,8.327c9.169,6.977,12.511,4.679,22.328,15.186c9.814,10.511,11.809,10.771,23.676,8.477
				c17.041-3.298,134.32-20.576,150.682-23.737c8.45-1.641,25.693-4.322,47.001-7.47L912.365,467.313z"/>
		</g>
	</g>
	<g opacity="0.8" clip-path="url(#SVGID_16_)">
		<g>
			<defs>
				<rect id="SVGID_13_" x="559.139" y="484.065" width="364.6" height="163.769"/>
			</defs>
			<clipPath id="SVGID_19_">
				<use xlink:href="#SVGID_13_"  overflow="visible"/>
			</clipPath>
			<path clip-path="url(#SVGID_19_)" fill="#574900" d="M923.739,536.273c-89.923-9.534-184.85-6.473-204.063-8.251
				c-6.264-0.577-20.911-27.426-35.141-28.448c-9.059-0.646-21.237-4.602-25.693-5.173c-5.454-0.701-5.066-0.168-10.544-0.541
				c-4.883-0.333-7.783-0.76-14.476-1.42c-3.903-0.384-8.418-1.317-12.872-1.984c-3.189-0.479-5.531-1.311-8.541-2.619
				c-4.446-1.923-10.186-5.927-12.13-2.314c-2.173,4.044,1.646,9.901,5.069,12.726c4.17,3.582,6.831,7.251,16.993,8.975
				c5.028,1.747,10.318,2.948,15.193,4.141c0.151,0.037,8.22,1.306,7.677,7.219c-0.305,3.295-8.214,8.979-13.49,12.273
				c-5.693,3.549-10.51,5.824-15.396,8.432c-7.213,3.438-14.186,5.896-22.121,10.089c-7.044,2.898-11.972,7.554-15.978,9.536
				c-11.186,5.535-21.711,9.83-18.502,17.908c0.681,1.711,2.063,8.107,25.002-4.555c4.414-1.355,9.953-4.048,16.632-6.434
				c7.211-1.928,12.753-6.04,19.517-6.505c2.62-0.178,6.174,2.334,5.924,5.035c-0.187,2.016-13.648,12.45-19.113,20.017
				c-3.854,5.325-3.562,3.875-8.376,9.663c-1.18,1.419-4.265,5.639-5.953,7.766c-6.5,8.203-17.987,16.475-11.145,23.83
				c7.534,8.098,15.921-7.726,22.005-13.878c6.306-6.319,12.465-10.813,16.653-15.872c3.847-4.377,7.747-7.387,17.462-18.013
				c0.253,0.79,1.579-0.724,1.678,5.857c0,0-5.097,6.473-10.471,14.854c-3.224,5.778-7.773,13.05-10.952,18.967
				c-7.274,11.419-18.234,18.676-11.357,25.148c7.797,7.33,16.056-9.245,21.722-15.753c8.918-10.243,8.861-10.955,13.215-17.071
				c4.112-5.783,8.537-14.13,14.603-20.307c1.685,0.895,3.035,3.155,3.057,5.165c-0.319,3.261-2.138,10.575-2.743,13.043
				c-0.905,3.719-2.438,9.506-3.621,14.61c-1.006,4.368-11.582,21.694-2.589,25.17c6.234,2.407,11.95-11.765,14.902-20.534
				c2.028-5.988,4.845-11.09,6.208-16.913c1.848-4.486,3.601-10.33,6.788-16.168c1.933-3.55,5.187-7.896,7.52-10.346
				c7.21-5.732,15.246-12.123,22.853-19.151c1.628-1.315,7.02-9.966,9.027-10.728c3.236-1.87,86.123,25.717,157.6,32.751
				c15.18,1.493,29.392,3.079,42.891,4.784L923.739,536.273z"/>
		</g>
	</g>
	<g opacity="0.8" clip-path="url(#SVGID_16_)">
		<g>
			<defs>
				<rect id="SVGID_12_" x="260.024" y="92.283" width="208.35" height="297.562"/>
			</defs>
			<clipPath id="SVGID_20_">
				<use xlink:href="#SVGID_12_"  overflow="visible"/>
			</clipPath>
			<path clip-path="url(#SVGID_20_)" fill="#FE9201" d="M260.024,115.3c20.632,32.632,66.242,101.254,72.656,115.201
				c6.767,14.701-0.692,19.31-1.34,29.339c-0.656,10.036,1.935,17.87,3.645,22.045c1.257,3.09,2.517,7.407,3.216,10.377
				c0.697,4.317,0.991,11.66-1.37,18.169c-3.783,13.413-5.444,13.891-9.028,27.219c-0.641,2.374-2.703,6.789-3.713,9.938
				c-1.67,7.916-3.088,13.515,2.053,15.449c5.37,2.019,6.64-2.385,8.677-7.17c2.979-6.995,2.113-6.227,4.809-13.451
				c1.77-4.746,3.953-8.494,5.9-13.153c1.767-3.323,3.504-6.508,4.755-9.607c1.155-2.861,4.682-4.15,5.223-3.551
				c0.726,0.805,0.301,3.614,0.212,5.669c-0.3,6.55-2.528,17.525-2.976,20.095c-1.265,7.207-0.104,9.223-1.08,16.289
				c-0.659,4.759-1.78,11.387-2.13,17.107c-0.435,6.868-0.451,12.096,6.651,12.724c8.106,0.713,6.744-17.334,8.52-25.132
				c2.412-10.579,3.657-14.219,5.075-23.43c1.126-7.313,0.617-15.627,5.217-18.518c1.059-0.659,3.421-2.08,4.808-0.071
				c2.255,3.274,3.015,13.897,6.063,21.455c5.83,14.45,2.872,9.822,8.014,22.513c2.18,5.314,4.578,30.286,15.568,24.044
				c9.071-5.146,0.716-19.819-1.312-27.925c-1.145-4.555-3.238-16.048-5.447-22.188c-1.513-4.199-1.826-10.101-6.497-24.929
				c3.72-0.091,4.406-1.559,7.713,2.413c4.935,5.923,5.893,10.724,10.812,17.719c2.536,5.745,7.029,11.659,9.179,15.948
				c2.754,6.273,9.24,25.261,17.332,20.835c8.536-4.669-2.07-20.669-4.509-27.309c-3.294-8.979-3.799-11.875-7.058-18.742
				c-4.378-9.217-10.81-19.193-14.488-30.028c-1.2-2.885-2.728-5.695-3.534-8.505c-2.464-8.638-3.789-17.295,0.507-22.174
				c1.635-1.856,5.899-2.779,8.178-3.301c6.619,0.238,12.874,2.652,17.701,4.653c7.208,2.993,19.738,6.097,27.414,0.472
				c1.229-0.901,3.777-3.225,2.652-6.373c-0.233-0.669-2.349-2.746-11.364-4.232c-1.827-0.508-4.284-1.505-10.309-5.013
				c-2.139-1.241-4.065-1.089-6.116-1.94c-4.177-2.249-9.24-4.071-13.321-6.233c-6.356-3.35-8.615-6.198-18.537-8.944
				c-12.4-3.428-12.783-8.087-28.656-9.633c-15.872-1.545-17.501-3.182-23.885-15.601c-7.476-14.552-38.131-81.934-53.942-115.536
				L260.024,115.3z"/>
		</g>
	</g>
	<g opacity="0.8" clip-path="url(#SVGID_16_)">
		<g>
			<defs>
				<rect id="SVGID_11_" x="377.455" width="177.033" height="379.648"/>
			</defs>
			<clipPath id="SVGID_21_">
				<use xlink:href="#SVGID_11_"  overflow="visible"/>
			</clipPath>
			<path clip-path="url(#SVGID_21_)" fill="#DA0000" d="M500.132,0.035c-0.44,20.308-0.857,35.974-1.192,43.395
				c-1.223,27.321-13.849,137.962-13.07,155.987c0.714,16.559,9.543,17.03,14.77,25.727c5.224,8.699,6.513,17.022,6.908,21.623
				c0.295,3.396,1.15,7.9,1.9,10.916c1.373,4.222,4.499,10.968,9.632,15.662c9.604,10.189,11.313,9.804,20.699,20.027
				c1.674,1.824,5.563,4.774,7.933,7.105c5.158,6.295,9.016,10.635,5.292,14.903c-3.905,4.468-7.071,1.13-11.121-2.167
				c-5.915-4.829-4.774-4.559-10.542-9.728c-3.781-3.403-7.476-5.69-11.381-8.926c-3.128-2.116-6.161-4.126-8.719-6.293
				c-2.358-2.005-6.127-1.428-6.334-0.617c-0.282,1.084,1.396,3.397,2.426,5.2c3.296,5.745,10.373,14.516,11.964,16.605
				c4.47,5.861,4.359,8.242,8.502,14.113c2.786,3.956,6.857,9.368,9.822,14.338c3.559,5.96,5.998,10.655-0.096,14.716
				c-6.962,4.637-14.08-12.265-19.287-18.399c-7.05-8.327-9.854-10.988-15.394-18.576c-4.39-6.014-7.778-13.747-13.248-14.073
				c-1.254-0.071-4.033-0.183-4.354,2.302c-0.512,4.052,3.718,13.983,4.464,22.279c1.438,15.867,1.958,10.249,3.203,24.198
				c0.492,5.853,9.883,29.488-2.89,29.292c-10.533-0.161-9.809-17.475-11.723-25.757c-1.082-4.663-4.504-16.028-5.36-22.639
				c-0.582-4.521-3.024-9.982-5.684-25.621c-3.386,1.751-4.675,0.774-5.822,5.972c-1.695,7.758-0.333,12.546-1.527,21.26
				c0.371,6.419-0.934,13.947-0.88,18.862c0.422,6.998,3.359,27.274-5.963,27.28c-9.83,0.005-7.689-19.603-8.565-26.779
				c-1.186-9.699-2.07-12.557-2.314-20.333c-0.323-10.446,0.853-22.589-0.85-34.141c-0.255-3.19-0.183-6.465-0.749-9.393
				c-1.786-8.982-4.59-17.42-10.711-19.686c-2.331-0.86-6.596,0.408-8.883,1.054c-5.84,3.484-10.348,8.734-13.754,12.911
				c-5.112,6.249-14.936,15.21-24.438,13.932c-1.536-0.205-4.886-1.038-5.336-4.424c-0.098-0.713,0.846-3.623,8.268-9.404
				c1.403-1.356,3.154-3.463,6.954-9.589c1.345-2.167,3.148-2.978,4.594-4.759c2.724-4.083,6.432-8.214,9.112-12.167
				c4.16-6.145,4.881-9.819,12.531-17.177c9.563-9.192,7.757-13.574,21.315-22.785c13.554-9.209,14.264-11.482,14.264-25.793
				c0-20.545-7.816-123.546-7.816-143.266c0-8.172,0.03-25.208,0.124-47.205L500.132,0.035z"/>
		</g>
	</g>
	<g opacity="0.8" clip-path="url(#SVGID_16_)">
		<g>
			<defs>
				<rect id="SVGID_10_" x="457.748" y="37.249" width="296.645" height="389.056"/>
			</defs>
			<clipPath id="SVGID_22_">
				<use xlink:href="#SVGID_10_"  overflow="visible"/>
			</clipPath>
			<path clip-path="url(#SVGID_22_)" fill="#FE9301" d="M715.846,37.249c-30.212,46.088-40.677,64.028-56.004,90.246
				c-13.519,23.136-64.851,119.011-75.375,133.144c-9.669,12.975-17.075,8.186-26.08,12.162
				c-8.998,3.983-14.616,9.958-17.463,13.451c-2.104,2.572-5.274,5.708-7.534,7.71c-3.426,2.62-9.663,6.247-16.392,7.041
				c-13.365,2.624-14.547,1.304-27.746,4.082c-2.355,0.49-7.132,0.597-10.318,1.102c-7.636,2.078-13.136,3.324-12.467,8.959
				c0.704,5.894,5.104,5.058,10.184,4.754c7.437-0.435,6.372-0.886,13.869-1.702c4.932-0.531,9.181-0.214,14.106-0.548
				c3.702,0.124,7.259,0.272,10.518,0.015c3.011-0.246,5.738,2.433,5.462,3.208c-0.366,1.038-2.991,1.93-4.817,2.781
				c-5.824,2.719-16.366,5.668-18.801,6.432c-6.827,2.126-8.049,4.117-14.63,6.444c-4.429,1.559-10.689,3.565-15.821,5.844
				c-6.149,2.739-10.698,5.113-7.992,11.969c3.084,7.823,18.117-1.68,25.698-3.604c10.279-2.598,14.012-3.113,22.655-6.01
				c6.857-2.291,13.843-6.568,18.447-3.629c1.056,0.673,3.368,2.212,2.259,4.414c-1.811,3.578-10.688,9.138-15.852,15.41
				c-9.87,11.994-7.202,7.152-15.876,17.703c-3.612,4.446-24.186,18.073-13.743,25.392c8.606,6.039,17.527-8.39,23.625-13.974
				c3.436-3.142,12.449-10.331,16.771-15.183c2.949-3.311,7.929-6.302,18.663-17.401c1.786,3.405,3.364,3.366,1.438,8.243
				c-2.889,7.272-6.621,10.348-10.448,18.1c-3.823,4.969-6.897,11.832-9.638,15.776c-4.191,5.411-17.7,20.097-10.163,25.558
				c7.949,5.763,16.988-11.363,21.64-16.65c6.284-7.15,8.571-8.942,13.036-15.095c5.999-8.257,11.718-18.769,19.443-27.122
				c1.948-2.428,3.691-5.128,5.763-7.162c6.371-6.221,13.274-11.403,19.476-9.658c2.354,0.667,5.109,4.191,6.603,6.058
				c2.816,6.233,3.577,13.121,4.044,18.5c0.696,8.043,3.729,21.048,12.121,25.583c1.343,0.726,4.522,2.016,6.743-0.458
				c0.472-0.526,1.305-3.426-1.525-12.456c-0.393-1.918-0.649-4.648-0.359-11.828c0.104-2.539-0.911-4.255-1.109-6.541
				c0.043-4.894-0.688-10.409-0.676-15.172c0.003-7.409,1.435-10.803-0.718-21.239c-2.68-13.029,1.186-15.518-4.729-30.912
				c-5.904-15.387-5.238-17.64,2.627-29.22c11.283-16.623,70.869-96.547,81.705-112.504c16.705-24.614,24.599-36.236,57.927-94.118
				L715.846,37.249z"/>
		</g>
	</g>
	<g opacity="0.8" clip-path="url(#SVGID_16_)">
		<g>
			<defs>
				<rect id="SVGID_9_" x="243.315" y="548.693" width="218.812" height="280.756"/>
			</defs>
			<clipPath id="SVGID_23_">
				<use xlink:href="#SVGID_9_"  overflow="visible"/>
			</clipPath>
			<path clip-path="url(#SVGID_23_)" fill="#C20000" d="M243.315,802.114c24.984-30.657,74.265-88.86,81.881-101.35
				c8.314-13.646,1.505-19.083,1.997-29.021c0.493-9.94,3.924-17.338,6.078-21.248c1.591-2.883,3.314-6.972,4.334-9.81
				c1.175-4.165,2.295-11.35,0.709-18.04c-2.211-13.645-3.79-14.311-5.807-27.855c-0.355-2.414-1.892-7.006-2.531-10.215
				c-0.745-7.989-1.507-13.671,3.768-14.95c5.51-1.342,6.263,3.145,7.723,8.093c2.144,7.243,1.375,6.375,3.21,13.811
				c1.206,4.883,2.929,8.83,4.314,13.651c1.371,3.477,2.714,6.821,3.592,10.02c0.806,2.952,4.133,4.645,4.738,4.117
				c0.802-0.707,0.703-3.517,0.847-5.551c0.445-6.478-0.504-17.536-0.658-20.123c-0.425-7.236,0.942-9.08,0.779-16.153
				c-0.107-4.754-0.455-11.407-0.164-17.078c0.353-6.803,0.927-11.95,7.986-11.712c8.052,0.28,4.67,17.863,5.537,25.743
				c1.178,10.692,1.989,14.429,2.345,23.667c0.286,7.321-1.161,15.436,3.039,18.83c0.963,0.777,3.132,2.46,4.721,0.65
				c2.581-2.947,4.534-13.306,8.383-20.37c7.366-13.511,3.938-9.314,10.424-21.178c2.749-4.963,7.928-29.233,18.036-21.77
				c8.338,6.152-1.531,19.578-4.445,27.308c-1.644,4.343-5.001,15.395-7.869,21.166c-1.961,3.944-2.941,9.714-9.205,23.73
				c3.65,0.541,4.153,2.065,7.856-1.444c5.523-5.225,7.003-9.835,12.638-16.12c3.146-5.344,8.23-10.613,10.829-14.579
				c3.416-5.844,11.95-23.729,19.405-18.407c7.86,5.62-4.376,20.08-7.524,26.32c-4.255,8.433-5.083,11.223-9.062,17.584
				c-5.343,8.535-12.795,17.576-17.641,27.782c-1.505,2.701-3.326,5.276-4.435,7.94c-3.404,8.206-5.686,16.554-2.01,21.875
				c1.401,2.02,5.491,3.443,7.673,4.229c6.533,0.566,12.96-1.062,17.925-2.447c7.438-2.077,20.108-3.618,27.02,2.843
				c1.114,1.034,3.351,3.622,1.893,6.584c-0.31,0.632-2.619,2.418-11.66,2.797c-1.853,0.278-4.382,0.961-10.705,3.685
				c-2.239,0.967-4.118,0.58-6.229,1.174c-4.372,1.705-9.551,2.893-13.814,4.525c-6.62,2.532-9.168,5.063-19.24,6.558
				c-12.576,1.883-13.485,6.422-29.271,6.025c-15.781-0.392-17.57,1.023-25.253,12.467c-8.674,12.928-44.065,71.516-63.906,103.581
				l-0.071-0.01L243.315,802.114z"/>
		</g>
	</g>
	<g opacity="0.8" clip-path="url(#SVGID_16_)">
		<g>
			<defs>
				<rect id="SVGID_8_" x="73.024" y="503.506" width="326.567" height="287.52"/>
			</defs>
			<clipPath id="SVGID_24_">
				<use xlink:href="#SVGID_8_"  overflow="visible"/>
			</clipPath>
			<path clip-path="url(#SVGID_24_)" fill="#FF1C01" d="M73.024,753.869c23.24-17.053,42.374-31.074,50.05-37.035
				c19.34-15.008,121.786-75.03,133.631-86.09c10.878-10.15,6.059-16.854,8.949-25.712c2.895-8.855,7.816-14.637,10.728-17.61
				c2.144-2.183,4.713-5.438,6.337-7.734c2.081-3.455,4.866-9.654,5.078-16.113c1.362-12.917,0.102-13.935,1.61-26.715
				c0.271-2.271,0.013-6.825,0.232-9.899c1.29-7.41,2.002-12.745,7.086-12.521c5.312,0.238,4.887,4.485,4.988,9.344
				c0.153,7.108-0.328,6.125-0.505,13.321c-0.109,4.737,0.482,8.761,0.548,13.479c0.375,3.504,0.77,6.882,0.776,10
				c0.006,2.883,2.598,5.286,3.271,4.965c0.901-0.424,1.505-2.989,2.129-4.79c2-5.74,3.867-15.993,4.363-18.359
				c1.397-6.658,3.089-7.975,4.679-14.4c1.075-4.333,2.398-10.44,4.063-15.484c1.988-6.062,3.779-10.564,10.099-8.493
				c7.209,2.362-0.173,17.375-1.334,24.731c-1.565,9.975-1.757,13.56-3.709,22.002c-1.541,6.694-4.852,13.652-1.886,17.823
				c0.676,0.961,2.222,3.045,4.103,1.826c3.063-1.984,7.378-10.839,12.602-16.215c9.985-10.277,5.849-7.381,14.639-16.403
				c3.705-3.771,14.361-24.35,21.66-14.956c6.019,7.755-6.207,17.305-10.743,23.519c-2.556,3.502-8.312,12.605-12.325,17.074
				c-2.745,3.054-5.047,8.011-14.167,19.041c3.165,1.448,3.248,2.953,7.462,0.753c6.277-3.273,8.748-7.056,15.387-11.253
				c4.158-4.007,10.061-7.439,13.378-10.339c4.526-4.385,16.648-18.316,22.076-11.545c5.724,7.146-8.897,17.005-13.278,21.816
				c-5.924,6.508-7.361,8.81-12.524,13.516c-6.932,6.316-15.896,12.526-22.792,20.489c-2.022,2.044-4.302,3.896-5.962,6.013
				c-5.093,6.519-9.208,13.474-7.197,19.248c0.764,2.191,4.111,4.552,5.885,5.841c5.774,2.22,11.983,2.438,16.815,2.49
				c7.233,0.079,19.063,2.007,23.729,9.661c0.746,1.229,2.131,4.158,0.083,6.453c-0.434,0.484-2.962,1.493-11.227-0.539
				c-1.747-0.228-4.197-0.278-10.583,0.531c-2.267,0.275-3.869-0.564-5.92-0.586c-4.374,0.4-9.35,0.116-13.603,0.463
				c-6.61,0.55-9.537,2.172-19.009,0.885c-11.836-1.601-13.772,2.265-27.949-2.233c-14.172-4.502-16.127-3.694-25.895,4.638
				c-14.007,11.958-113.129,89.292-126.584,100.772c-6.952,5.938-21.456,17.427-39.461,31.487L73.024,753.869z"/>
		</g>
	</g>
	<g opacity="0.8" clip-path="url(#SVGID_16_)">
		<g>
			<defs>
				<rect id="SVGID_7_" x="8.034" y="434.677" width="355.976" height="169.331"/>
			</defs>
			<clipPath id="SVGID_25_">
				<use xlink:href="#SVGID_7_"  overflow="visible"/>
			</clipPath>
			<path clip-path="url(#SVGID_25_)" fill="#A17D00" d="M13.468,604.008c89.987-8.797,182.506-30.957,201.684-33.097
				c6.25-0.702,25.702,22.678,39.852,20.809c9.005-1.191,21.696,0.225,26.179-0.107c5.476-0.418,4.993-0.86,10.442-1.603
				c4.849-0.667,7.779-0.825,14.465-1.532c3.901-0.407,8.502-0.399,12.99-0.651c3.225-0.175,5.681,0.171,8.883,0.845
				c4.725,0.993,11.108,3.755,12.328-0.181c1.37-4.406-3.49-9.377-7.376-11.455c-4.772-2.674-8.07-5.735-18.367-5.371
				c-5.264-0.7-10.674-0.807-15.686-0.996c-0.152-0.004-8.306,0.38-8.892-5.528c-0.326-3.286,6.351-10.46,10.907-14.752
				c4.907-4.638,9.205-7.842,13.5-11.382c6.429-4.832,12.796-8.649,19.786-14.362c6.352-4.263,10.316-9.819,13.858-12.573
				c9.926-7.694,19.44-14.028,14.761-21.299c-0.991-1.543-3.555-7.537-23.656,9.513c-4.075,2.217-9,5.976-15.093,9.67
				c-6.711,3.341-11.369,8.491-17.909,10.317c-2.545,0.697-6.492-1.044-6.765-3.746c-0.199-2.016,11.027-14.967,14.958-23.486
				c2.761-6,2.752-4.522,6.386-11.166c0.887-1.632,3.111-6.389,4.365-8.82c4.818-9.356,14.521-19.786,6.413-25.625
				c-8.923-6.415-14.153,10.789-18.946,18.061c-4.991,7.466-10.173,13.112-13.334,18.925c-2.937,5.069-6.188,8.807-13.717,21.186
				c-0.391-0.72-1.415,1.035-2.751-5.398c0,0,3.777-7.38,7.462-16.688c2.058-6.317,5.147-14.363,7.15-20.809
				c4.965-12.668,14.343-21.995,6.372-26.955c-9.034-5.619-13.994,12.31-18.317,19.834c-6.804,11.843-6.619,12.528-9.731,19.407
				c-2.938,6.5-5.697,15.585-10.475,22.868c-1.819-0.546-3.577-2.488-3.976-4.455c-0.303-3.258,0.098-10.797,0.224-13.346
				c0.183-3.825,0.592-9.81,0.779-15.059c0.167-4.481,7.256-23.61-2.227-25.205c-6.569-1.103-9.486,13.954-10.729,23.148
				c-0.851,6.278-2.646,11.853-2.883,17.839c-0.961,4.773-1.574,10.86-3.596,17.226c-1.222,3.874-3.591,8.793-5.409,11.663
				c-5.988,7.079-12.663,14.97-18.789,23.395c-1.349,1.617-5,11.189-6.828,12.342c-2.816,2.489-89.325-7.833-160.762-0.302
				c-15.161,1.598-29.402,2.911-42.964,3.963L13.468,604.008z"/>
		</g>
	</g>
	<g opacity="0.8" clip-path="url(#SVGID_16_)">
		<g>
			<defs>
				<rect id="SVGID_6_" x="539.23" y="528.239" width="278.467" height="231.864"/>
			</defs>
			<clipPath id="SVGID_26_">
				<use xlink:href="#SVGID_6_"  overflow="visible"/>
			</clipPath>
			<path clip-path="url(#SVGID_26_)" fill="#2A6201" d="M817.697,719.127c-33.242-18.181-105.109-55.316-117.222-64.281
				c-12.778-9.456-8.43-17.189-12.551-26.265c-4.114-9.074-10.037-14.613-13.483-17.408c-2.54-2.069-5.653-5.211-7.653-7.454
				c-2.625-3.419-6.317-9.675-7.304-16.53c-2.957-13.585-1.735-14.833-4.843-28.243c-0.554-2.39-0.813-7.269-1.404-10.514
				c-2.248-7.741-3.629-13.33-9.01-12.455c-5.636,0.917-4.679,5.389-4.22,10.578c0.668,7.586,1.063,6.484,2.091,14.128
				c0.679,5.025,0.521,9.381,0.999,14.415c0.015,3.779-0.011,7.427,0.342,10.751c0.34,3.07-2.138,5.953-2.894,5.702
				c-1.012-0.34-1.951-3.003-2.83-4.843c-2.805-5.861-5.986-16.545-6.805-19.012c-2.262-6.915-4.214-8.092-6.663-14.748
				c-1.656-4.478-3.78-10.817-6.142-15.984c-2.839-6.204-5.263-10.777-11.751-7.784c-7.404,3.416,2.22,18.484,4.312,26.168
				c2.841,10.43,3.462,14.23,6.524,22.974c2.436,6.941,6.775,13.935,4.106,18.748c-0.606,1.104-2.013,3.521-4.158,2.461
				c-3.495-1.731-9.123-10.626-15.316-15.691c-11.839-9.701-7.099-7.139-17.512-15.652c-4.389-3.547-18.15-24.134-24.826-13.208
				c-5.499,9.005,8.638,17.643,14.201,23.698c3.129,3.409,10.33,12.39,15.124,16.643c3.278,2.91,6.316,7.901,17.319,18.507
				c-3.201,1.939-3.113,3.56-7.856,1.74c-7.072-2.699-10.154-6.423-17.718-10.069c-4.894-3.744-11.579-6.66-15.454-9.335
				c-5.337-4.104-19.872-17.427-24.856-9.533c-5.268,8.32,11.468,16.993,16.697,21.574c7.063,6.187,8.864,8.46,14.918,12.828
				c8.126,5.858,18.392,11.357,26.668,18.971c2.399,1.924,5.045,3.611,7.063,5.662c6.185,6.309,11.384,13.198,9.919,19.595
				c-0.558,2.436-3.845,5.371-5.588,6.956c-5.882,3.087-12.474,4.101-17.616,4.759c-7.688,0.984-20.066,4.521-24.133,13.249
				c-0.655,1.404-1.784,4.699,0.662,6.889c0.52,0.461,3.332,1.221,11.896-1.975c1.826-0.469,4.435-0.821,11.334-0.768
				c2.443,0.02,4.051-1.077,6.239-1.353c4.696-0.124,9.968-1.053,14.539-1.203c7.103-0.245,10.411,1.11,20.348-1.438
				c12.416-3.188,14.933,0.683,29.499-5.873c14.565-6.563,16.749-5.953,28.119,1.697c13.334,8.972,71.566,52.469,101.068,73.903
				L817.697,719.127z"/>
		</g>
	</g>
	<g opacity="0.8" clip-path="url(#SVGID_16_)">
		<g>
			<defs>
				<rect id="SVGID_5_" x="449.196" y="589.271" width="219.908" height="318.304"/>
			</defs>
			<clipPath id="SVGID_27_">
				<use xlink:href="#SVGID_5_"  overflow="visible"/>
			</clipPath>
			<path clip-path="url(#SVGID_27_)" fill="#A07E00" d="M627.362,907.575c-8.169-16.085-14.412-28.535-17.262-34.489
				c-10.492-21.921-47.007-114.143-55.17-127.895c-7.503-12.638-14.611-9.06-22.34-13.526c-7.739-4.476-12.238-10.407-14.482-13.83
				c-1.647-2.526-4.208-5.664-6.06-7.684c-2.839-2.694-8.117-6.58-14.098-7.953c-11.787-3.687-12.965-2.617-24.596-6.421
				c-2.071-0.677-6.355-1.245-9.182-2.018c-6.675-2.612-11.516-4.286-10.392-9.292c1.178-5.237,5.063-4.045,9.608-3.267
				c6.648,1.131,5.648,1.425,12.328,2.895c4.383,0.963,8.235,1.107,12.646,1.897c3.334,0.252,6.552,0.468,9.465,1.024
				c2.686,0.515,5.388-1.626,5.214-2.351c-0.234-0.97-2.521-2.032-4.083-2.985c-4.99-3.018-14.198-6.717-16.32-7.637
				c-5.953-2.588-6.869-4.503-12.57-7.245c-3.841-1.85-9.295-4.265-13.697-6.829c-5.28-3.072-9.156-5.654-6.088-11.561
				c3.498-6.735,16.155,3.302,22.797,5.779c9.009,3.358,12.325,4.19,19.83,7.651c5.962,2.742,11.851,7.285,16.271,5.091
				c1.008-0.503,3.235-1.659,2.438-3.751c-1.301-3.396-8.767-9.279-12.834-15.431c-7.775-11.781-5.824-7.148-12.648-17.508
				c-2.838-4.355-20.094-18.652-10.023-24.21c8.309-4.587,15.004,9.287,19.974,14.911c2.803,3.166,10.25,10.526,13.688,15.318
				c2.35,3.278,6.551,6.459,15.185,17.507c1.916-2.884,3.335-2.691,2.053-7.272c-1.921-6.834-5-9.965-7.718-17.32
				c-2.982-4.853-5.114-11.332-7.218-15.154c-3.264-5.282-14.062-19.833-6.774-24.004c7.686-4.399,14.234,11.899,17.933,17.123
				c4.988,7.059,6.88,8.894,10.331,14.873c4.636,8.024,8.812,18.052,14.984,26.331c1.537,2.385,2.852,4.977,4.522,7.016
				c5.162,6.229,10.895,11.574,16.633,10.619c2.182-0.369,4.99-3.271,6.508-4.8c3.111-5.336,4.434-11.458,5.35-16.251
				c1.38-7.169,5.306-18.574,13.279-21.824c1.284-0.526,4.259-1.376,6.027,1.082c0.378,0.513,0.865,3.212-2.524,11.05
				c-0.528,1.692-1.019,4.121-1.42,10.606c-0.144,2.302-1.212,3.74-1.606,5.779c-0.412,4.416-1.584,9.301-2.018,13.594
				c-0.68,6.666,0.299,9.863-2.607,19.043c-3.625,11.47-0.374,14.09-7.119,27.355c-6.751,13.267-6.35,15.355-0.351,26.556
				c8.615,16.08,57.919,93.17,66.188,108.604c3.424,6.392,10.541,19.732,19.69,36.992L627.362,907.575z"/>
		</g>
	</g>
	<g opacity="0.8" clip-path="url(#SVGID_16_)">
		<g>
			<defs>
				<rect id="SVGID_4_" x="393.459" y="554.771" width="157.338" height="394.481"/>
			</defs>
			<clipPath id="SVGID_28_">
				<use xlink:href="#SVGID_4_"  overflow="visible"/>
			</clipPath>
			<path clip-path="url(#SVGID_28_)" fill="#DA0000" d="M471.192,949.252c4.313-49.568,4.979-68.28,5.979-95.648
				c0.876-24.146,0.842-122.104,3.16-137.872c2.116-14.472,9.923-14.031,15.299-21.168c5.373-7.137,7.262-14.326,8.026-18.329
				c0.567-2.956,1.731-6.828,2.664-9.4c1.579-3.585,4.938-9.213,9.868-12.839c9.358-8.023,10.834-7.524,19.995-15.597
				c1.639-1.438,5.33-3.653,7.618-5.476c5.1-5.034,8.884-8.473,5.997-12.582c-3.018-4.299-6.111-1.677-9.964,0.832
				c-5.635,3.669-4.612,3.545-10.143,7.534c-3.631,2.613-7.083,4.274-10.803,6.735c-2.947,1.557-5.788,3.029-8.233,4.688
				c-2.251,1.537-5.509,0.662-5.621-0.066c-0.147-0.979,1.537-2.851,2.608-4.335c3.414-4.73,10.427-11.751,12.007-13.435
				c4.458-4.717,4.578-6.819,8.745-11.581c2.815-3.202,6.876-7.566,9.935-11.644c3.659-4.897,6.222-8.78,1.235-12.94
				c-5.693-4.743-13.477,9.419-18.603,14.307c-6.947,6.628-9.652,8.698-15.204,14.824c-4.404,4.866-8.071,11.336-12.911,11.091
				c-1.108-0.049-3.559-0.226-3.613-2.441c-0.089-3.609,4.525-11.923,5.938-19.139c2.694-13.805,2.642-8.819,4.997-20.951
				c0.965-5.095,11.352-24.953,0.114-26.014c-9.272-0.871-10.197,14.399-12.628,21.5c-1.375,3.992-5.416,13.65-6.758,19.373
				c-0.922,3.914-3.562,8.475-7.306,21.951c-2.825-1.861-4.045-1.124-4.579-5.804c-0.794-6.977,0.837-11.055,0.578-18.823
				c0.91-5.601,0.441-12.345,0.934-16.657c1.009-6.11,5.422-23.636-2.766-24.542c-8.639-0.954-8.528,16.483-9.952,22.706
				c-1.921,8.403-2.957,10.823-3.867,17.638c-1.235,9.143-1.302,19.921-3.844,29.912c-0.509,2.768-0.742,5.659-1.507,8.178
				c-2.38,7.716-5.607,14.86-11.187,16.258c-2.126,0.533-5.755-0.995-7.707-1.786c-4.817-3.617-8.305-8.67-10.92-12.67
				c-3.921-5.979-11.744-14.8-20.212-14.595c-1.357,0.033-4.382,0.443-5.083,3.373c-0.149,0.621,0.416,3.261,6.41,9.059
				c1.116,1.33,2.458,3.352,5.245,9.096c0.985,2.035,2.498,2.923,3.606,4.617c2.024,3.854,4.906,7.841,6.896,11.571
				c3.103,5.801,3.401,9.101,9.463,16.302c7.568,8.998,5.582,12.674,16.659,22.067c11.071,9.403,11.493,11.469,10.199,24.045
				c-1.859,18.051-14.975,107.219-16.759,124.543c-2.75,26.728-4.052,39.356-5.856,99.535L471.192,949.252z"/>
		</g>
	</g>
	<g opacity="0.8" clip-path="url(#SVGID_16_)">
		<g>
			<defs>
				<rect id="SVGID_3_" x="0.001" y="346.085" width="335.45" height="165.071"/>
			</defs>
			<clipPath id="SVGID_29_">
				<use xlink:href="#SVGID_3_"  overflow="visible"/>
			</clipPath>
			<path clip-path="url(#SVGID_29_)" fill="#2A6201" d="M9.566,346.085c17.439,4.033,30.882,7.218,37.223,8.852
				c23.355,6.012,116.55,37.407,132.242,39.915c14.414,2.305,16.395-5.734,24.831-8.981c8.443-3.251,15.854-2.951,19.892-2.492
				c2.986,0.337,7.021,0.353,9.753,0.201c3.894-0.497,10.275-2.171,15.241-6.057c10.506-7.004,10.482-8.654,20.98-15.451
				c1.87-1.217,5.109-4.274,7.545-6.029c6.351-3.62,10.789-6.393,13.807-2.207c3.153,4.389-0.291,6.71-3.857,9.843
				c-5.228,4.577-4.788,3.574-10.281,7.955c-3.609,2.872-6.247,5.861-9.735,8.875c-2.383,2.5-4.658,4.933-6.988,6.895
				c-2.155,1.809-2.325,5.377-1.666,5.718c0.886,0.449,3.184-0.686,4.922-1.308c5.546-2.002,14.373-6.945,16.46-8.038
				c5.857-3.059,7.893-2.531,13.7-5.29c3.911-1.861,9.308-4.635,14.126-6.471c5.778-2.21,10.262-3.612,12.679,2.721
				c2.753,7.234-13.096,10.755-19.323,14.446c-8.442,5-11.242,7.104-18.772,10.839c-5.977,2.962-13.256,4.693-14.511,9.67
				c-0.292,1.136-0.885,3.677,1.202,4.417c3.406,1.199,12.729-0.917,20.021-0.125c13.945,1.52,9.189,0.034,21.449,1.381
				c5.135,0.596,27.208-3.811,24.756,7.9c-2.02,9.658-16.828,5.892-24.321,6.174c-4.212,0.164-14.633,1.281-20.49,0.884
				c-4-0.275-9.151,0.999-23.116,0.642c0.899,3.432-0.176,4.44,4.107,6.425c6.387,2.952,10.765,2.549,18.069,5.207
				c5.601,0.808,11.866,3.355,16.114,4.186c6.118,0.86,24.131,1.786,22.467,10.358c-1.748,9.042-18.287,3.571-24.632,3.092
				c-8.574-0.646-11.199-0.337-17.953-1.508c-9.072-1.569-19.334-4.818-29.608-5.323c-2.797-0.333-5.609-0.986-8.235-0.986
				c-8.067,0.033-15.847,1.107-18.904,6.327c-1.16,1.991-0.824,6.14-0.672,8.363c1.956,5.989,5.687,11.082,8.674,14.961
				c4.478,5.811,10.453,16.455,7.653,24.966c-0.449,1.369-1.768,4.308-4.775,4.115c-0.633-0.037-2.973-1.422-6.633-9.285
				c-0.92-1.538-2.422-3.521-7.027-8.107c-1.629-1.624-2.008-3.432-3.283-5.078c-3.038-3.24-5.936-7.387-8.867-10.558
				c-4.559-4.925-7.598-6.243-12.579-14.598c-6.223-10.44-10.327-9.563-15.843-23.68c-5.526-14.117-7.361-15.175-19.708-17.733
				c-17.726-3.675-107.982-14.897-124.996-18.423c-7.057-1.466-21.741-4.541-40.704-8.558L9.566,346.085z"/>
		</g>
	</g>
	<g opacity="0.8" clip-path="url(#SVGID_16_)">
		<g>
			<defs>
				<rect id="SVGID_2_" x="84.398" y="127.786" width="299.987" height="324.037"/>
			</defs>
			<clipPath id="SVGID_30_">
				<use xlink:href="#SVGID_2_"  overflow="visible"/>
			</clipPath>
			<path clip-path="url(#SVGID_30_)" fill="#5A0000" d="M84.398,158.247c34.362,36.033,47.962,48.858,67.847,67.649
				c17.541,16.572,91.074,80.931,101.387,93.144c9.47,11.209,4.006,17.166,5.833,26.154c1.824,8.992,5.974,15.228,8.474,18.472
				c1.847,2.395,3.986,5.87,5.311,8.309c1.642,3.622,3.659,10.007,3.137,16.333c-0.123,12.765-1.467,13.611-1.435,26.25
				c0,2.256-0.76,6.667-0.895,9.692c0.425,7.387,0.519,12.677,5.499,13.07c5.213,0.403,5.274-3.793,5.927-8.523
				c0.951-6.913,0.373-6.013,1.011-13.061c0.423-4.628,1.448-8.478,2.047-13.072c0.765-3.381,1.529-6.622,1.89-9.667
				c0.333-2.814,3.123-4.846,3.742-4.456c0.833,0.524,1.137,3.102,1.544,4.937c1.301,5.838,1.965,16.06,2.187,18.436
				c0.611,6.666,2.117,8.143,2.947,14.609c0.555,4.353,1.159,10.473,2.21,15.597c1.26,6.15,2.497,10.756,8.892,9.496
				c7.306-1.439,1.79-16.971,1.496-24.288c-0.408-9.915-0.186-13.441-1.139-21.906c-0.755-6.72-3.196-13.909,0.163-17.623
				c0.773-0.851,2.514-2.704,4.217-1.283c2.762,2.307,5.97,11.458,10.459,17.332c8.58,11.229,4.884,7.908,12.432,17.767
				c3.19,4.119,11.268,25.482,19.451,17.186c6.747-6.841-4.108-17.623-7.833-24.229c-2.093-3.727-6.688-13.304-10.101-18.143
				c-2.325-3.305-4.017-8.421-11.667-20.275c3.25-1.04,3.497-2.495,7.363,0.153c5.755,3.952,7.742,7.937,13.747,12.833
				c3.604,4.416,8.97,8.468,11.884,11.695c3.921,4.826,14.18,19.87,20.233,13.915c6.393-6.277-6.764-17.659-10.499-22.879
				c-5.041-7.06-6.179-9.481-10.687-14.69c-6.053-6.993-14.101-14.134-19.925-22.733c-1.745-2.231-3.763-4.313-5.144-6.583
				c-4.231-6.97-7.471-14.246-4.852-19.638c0.997-2.049,4.53-3.95,6.406-4.988c5.876-1.478,11.964-0.944,16.684-0.415
				c7.061,0.799,18.821,0.333,24.232-6.573c0.872-1.108,2.554-3.798,0.817-6.281c-0.371-0.526-2.725-1.815-11.02-0.826
				c-1.724,0.018-4.128-0.237-10.268-1.789c-2.176-0.546-3.835,0.078-5.836-0.146c-4.221-0.911-9.109-1.229-13.218-2.09
				c-6.395-1.331-9.063-3.251-18.455-3.144c-11.722,0.146-13.174-3.859-27.505-1.173c-14.336,2.682-16.162,1.662-24.745-7.644
				c-12.327-13.351-70.624-82.446-82.455-95.26c-18.244-19.772-26.865-29.109-70.837-70.112L84.398,158.247z"/>
		</g>
	</g>
</g>
</svg>
