<?xml version="1.0" encoding="utf-8"?>
<!-- Generator: Adobe Illustrator 15.1.0, SVG Export Plug-In . SVG Version: 6.00 Build 0)  -->
<!DOCTYPE svg PUBLIC "-//W3C//DTD SVG 1.1//EN" "http://www.w3.org/Graphics/SVG/1.1/DTD/svg11.dtd">
<svg version="1.1" id="Layer_1" xmlns="http://www.w3.org/2000/svg" xmlns:xlink="http://www.w3.org/1999/xlink" x="0px" y="0px"
	 width="512px" height="512px" viewBox="0 0 512 512" enable-background="new 0 0 512 512" xml:space="preserve">
<g>
	<g>
		<defs>
			<rect id="SVGID_1_" x="0" y="0" width="512" height="512"/>
		</defs>
		<clipPath id="SVGID_2_">
			<use xlink:href="#SVGID_1_"  overflow="visible"/>
		</clipPath>
		<ellipse clip-path="url(#SVGID_2_)" fill="#FFFFFF" cx="268.97" cy="161.792" rx="77.482" ry="81.237"/>
	</g>
</g>
<g>
	<g>
		<defs>
			<rect id="SVGID_3_" x="0" y="0" width="512" height="512"/>
		</defs>
		<clipPath id="SVGID_4_">
			<use xlink:href="#SVGID_3_"  overflow="visible"/>
		</clipPath>
		<path clip-path="url(#SVGID_4_)" fill="#FFFFFF" d="M158.72,339.285L158.72,339.285c0-1.022,0-2.048,0-3.072
			c0-0.341,0-0.683,0-1.022c0-0.684,0-1.365-0.341-1.707c0-0.341-0.342-1.023-0.342-1.365c0-0.341-0.342-1.022-0.342-1.365
			c0-0.342-0.341-1.023-0.341-1.364c0-0.343-0.341-0.684-0.341-1.365c-0.341-0.684-0.341-1.024-0.683-1.707
			c0-0.341-0.342-0.684-0.342-1.023c-0.341-0.683-0.683-1.023-1.023-1.707c0-0.342-0.341-0.683-0.341-0.683
			c-0.341-0.683-0.684-1.024-1.024-1.707c0-0.341-0.341-0.341-0.341-0.683c-0.341-0.684-1.024-1.023-1.365-1.706l-0.341-0.343
			c-0.683-0.683-1.024-1.022-1.707-1.706c0,0-0.341,0-0.341-0.342c-0.684-0.683-1.365-1.023-2.048-1.707l0,0
			c-0.684-0.683-1.365-1.022-2.048-1.364l0,0c-4.438-2.73-9.559-4.097-15.02-4.097c-16.384,0-29.696,13.313-29.696,29.696
			c0,13.312,8.533,24.234,20.48,28.33c0.341,0,1.023,0.342,1.365,0.342c0.341,0,0.683,0.341,1.365,0.341
			c0.342,0,0.684,0.342,1.365,0.342c0.683,0,1.024,0.342,1.707,0.342c0.341,0,0.684,0,1.024,0c1.023,0,1.707,0,2.73,0
			C145.75,368.981,158.72,355.669,158.72,339.285z"/>
	</g>
</g>
<g>
	<g>
		<defs>
			<rect id="SVGID_5_" x="0" y="0" width="512" height="512"/>
		</defs>
		<clipPath id="SVGID_6_">
			<use xlink:href="#SVGID_5_"  overflow="visible"/>
		</clipPath>
		<path clip-path="url(#SVGID_6_)" fill="#FFFFFF" d="M423.936,350.891c-9.216-73.045-103.765-96.598-115.029-98.987h-18.771v31.061
			h-41.984v-31.061h-18.772c-7.852,1.707-56.32,13.654-88.064,45.739v-48.47h30.721v-22.527h-30.721v-28.331h-22.527v28.331H88.066
			v22.527h30.721v51.883c3.413-1.023,6.826-1.365,10.581-1.365c21.845,0,39.595,17.75,39.595,39.595
			c0,19.115-13.653,35.157-32.085,38.912c22.87,11.946,64.512,26.624,132.096,26.624v-0.341v0.341
			c84.992,0,129.023-23.211,146.432-35.157C421.547,365.227,424.618,358.059,423.936,350.891z"/>
	</g>
</g>
<g>
	<g>
		<defs>
			<rect id="SVGID_7_" x="0" y="0" width="512" height="512"/>
		</defs>
		<clipPath id="SVGID_8_">
			<use xlink:href="#SVGID_7_"  overflow="visible"/>
		</clipPath>
		<path clip-path="url(#SVGID_8_)" fill="#FFFFFF" d="M191.488,161.792c0,40.277,27.99,73.729,64.513,80.213V81.92
			C219.478,88.405,191.488,121.856,191.488,161.792z"/>
	</g>
</g>
<g>
	<g>
		<defs>
			<rect id="SVGID_9_" x="0" y="0" width="512" height="512"/>
		</defs>
		<clipPath id="SVGID_10_">
			<use xlink:href="#SVGID_9_"  overflow="visible"/>
		</clipPath>
		<path clip-path="url(#SVGID_10_)" fill="#FFFFFF" d="M158.72,339.285L158.72,339.285c0-1.022,0-2.048,0-3.072
			c0-0.341,0-0.683,0-1.022c0-0.684,0-1.365-0.341-1.707c0-0.341-0.342-1.023-0.342-1.365c0-0.341-0.342-1.022-0.342-1.365
			c0-0.342-0.341-1.023-0.341-1.364c0-0.343-0.341-0.684-0.341-1.365c-0.341-0.684-0.341-1.024-0.683-1.707
			c0-0.341-0.342-0.684-0.342-1.023c-0.341-0.683-0.683-1.023-1.023-1.707c0-0.342-0.341-0.683-0.341-0.683
			c-0.341-0.683-0.684-1.024-1.024-1.707c0-0.341-0.341-0.341-0.341-0.683c-0.341-0.684-1.024-1.023-1.365-1.706l-0.341-0.343
			c-0.683-0.683-1.024-1.022-1.707-1.706c0,0-0.341,0-0.341-0.342c-0.684-0.683-1.365-1.023-2.048-1.707l0,0
			c-0.684-0.683-1.365-1.022-2.048-1.364l0,0c-4.438-2.73-9.559-4.097-15.02-4.097c-16.384,0-29.696,13.313-29.696,29.696
			c0,13.312,8.533,24.234,20.48,28.33c0.341,0,1.023,0.342,1.365,0.342c0.341,0,0.683,0.341,1.365,0.341
			c0.342,0,0.684,0.342,1.365,0.342c0.683,0,1.024,0.342,1.707,0.342c0.341,0,0.684,0,1.024,0c1.023,0,1.707,0,2.73,0
			C145.75,368.981,158.72,355.669,158.72,339.285z"/>
	</g>
</g>
<g>
	<g>
		<defs>
			<rect id="SVGID_11_" x="0" y="0" width="512" height="512"/>
		</defs>
		<clipPath id="SVGID_12_">
			<use xlink:href="#SVGID_11_"  overflow="visible"/>
		</clipPath>
		<path clip-path="url(#SVGID_12_)" fill="#FFFFFF" d="M248.149,282.965v-31.061h-18.772c-7.852,1.707-56.32,13.654-88.064,45.739
			v-48.47h30.721v-22.527h-30.721v-28.331h-22.527v28.331H88.064v22.527h30.721v51.883c3.412-1.023,6.826-1.365,10.581-1.365
			c21.845,0,39.595,17.75,39.595,39.595c0,19.115-13.653,35.157-32.085,38.912c21.504,11.264,59.392,24.576,119.125,26.283V282.965
			H248.149z"/>
	</g>
</g>
<g>
	<g>
		<defs>
			<rect id="SVGID_13_" x="0" y="0" width="512" height="512"/>
		</defs>
		<clipPath id="SVGID_14_">
			<use xlink:href="#SVGID_13_"  overflow="visible"/>
		</clipPath>
	</g>
</g>
<g>
	<g>
		<defs>
			<rect id="SVGID_15_" x="0" y="0" width="512" height="512"/>
		</defs>
		<clipPath id="SVGID_16_">
			<use xlink:href="#SVGID_15_"  overflow="visible"/>
		</clipPath>
	</g>
</g>
</svg>
