<?xml version="1.0" encoding="utf-8"?>
<!-- Generator: Adobe Illustrator 15.1.0, SVG Export Plug-In . SVG Version: 6.00 Build 0)  -->
<!DOCTYPE svg PUBLIC "-//W3C//DTD SVG 1.1//EN" "http://www.w3.org/Graphics/SVG/1.1/DTD/svg11.dtd">
<svg version="1.1" id="Layer_1" xmlns="http://www.w3.org/2000/svg" xmlns:xlink="http://www.w3.org/1999/xlink" x="0px" y="0px"
	 width="512px" height="512px" viewBox="0 0 512 512" enable-background="new 0 0 512 512" xml:space="preserve">
<g>
	<defs>
		<rect id="SVGID_1_" width="512" height="512"/>
	</defs>
	<clipPath id="SVGID_2_">
		<use xlink:href="#SVGID_1_"  overflow="visible"/>
	</clipPath>
</g>
<g>
	<defs>
		<rect id="SVGID_3_" x="-0.001" y="0.001" width="512.001" height="512"/>
	</defs>
	<clipPath id="SVGID_4_">
		<use xlink:href="#SVGID_3_"  overflow="visible"/>
	</clipPath>
	<path clip-path="url(#SVGID_4_)" fill="#FFFFFF" d="M192.552,97.224c10.098,22.225,20.132,44.512,30.229,66.736h66.49
		c10.097-22.225,20.131-44.449,30.166-66.736H192.552z"/>
</g>
<g>
	<defs>
		<rect id="SVGID_5_" x="-0.001" y="0.001" width="512.001" height="512"/>
	</defs>
	<clipPath id="SVGID_6_">
		<use xlink:href="#SVGID_5_"  overflow="visible"/>
	</clipPath>
	<path clip-path="url(#SVGID_6_)" fill="#FFFFFF" d="M185.226,101.902l-49.437,57.069c-1.231,1.417-1.539,3.633-0.738,5.356
		l31.397,67.475c10.835-10.158,25.057-16.685,40.202-16.869c11.883-0.308,23.58,3.017,33.861,8.865L185.226,101.9V101.902z"/>
</g>
<g>
	<defs>
		<rect id="SVGID_7_" x="-0.001" y="0.001" width="512.001" height="512"/>
	</defs>
	<clipPath id="SVGID_8_">
		<use xlink:href="#SVGID_7_"  overflow="visible"/>
	</clipPath>
	<path clip-path="url(#SVGID_8_)" fill="#FFFFFF" d="M326.825,101.902l-55.224,121.775c5.787-3.325,12.128-5.787,18.654-7.266
		c19.578-4.863,40.818,1.662,55.348,15.206l31.336-67.29c0.801-1.725,0.493-3.88-0.738-5.356l-49.374-57.069H326.825z"/>
</g>
<g>
	<defs>
		<rect id="SVGID_9_" x="-0.001" y="0.001" width="512.001" height="512"/>
	</defs>
	<clipPath id="SVGID_10_">
		<use xlink:href="#SVGID_9_"  overflow="visible"/>
	</clipPath>
	<path clip-path="url(#SVGID_10_)" fill="#FFDB76" d="M208.682,223.554c-32.26,0-54.424,27.027-54.424,57.316
		c0,30.475,24.133,92.963,100.229,133.473c0.923,0.493,2.093,0.493,3.017,0c88.715-51.099,100.104-123.622,100.228-133.473
		c0.493-33.86-22.102-57.316-54.423-57.316c-25.181,0-41.31,17.423-47.344,25.241C249.93,240.977,233.801,223.554,208.682,223.554z"
		/>
</g>
</svg>
