<?xml version="1.0" ?><svg enable-background="new 0 0 515.91 728.5" height="512" id="Layer_1" version="1.1" viewBox="0 0 512.00003 512" width="512" xml:space="preserve" xmlns="http://www.w3.org/2000/svg" xmlns:cc="http://creativecommons.org/ns#" xmlns:dc="http://purl.org/dc/elements/1.1/" xmlns:inkscape="http://www.inkscape.org/namespaces/inkscape" xmlns:rdf="http://www.w3.org/1999/02/22-rdf-syntax-ns#" xmlns:sodipodi="http://sodipodi.sourceforge.net/DTD/sodipodi-0.dtd" xmlns:svg="http://www.w3.org/2000/svg"><defs id="defs7"/><g id="g9398" transform="matrix(0.99998754,0,0,0.99998754,1746.7627,-15204.898)"><path d="m -1490.4375,15783.625 c -33.4205,0.257 -66.2539,10.833 -99.1875,16.687 -0.5624,3.291 -0.7812,7.419 -0.7812,12.407 0,22.021 13.4808,45.036 25.6874,56.937 4.1377,17.312 12.0213,32.6 22.6563,44.219 -0.3711,0.23 -0.7539,0.429 -1.125,0.656 -39.8628,29.256 -102.0641,36.357 -130.5937,72.688 -21.354,27.537 -30.3384,54.458 -30.5313,81.593 -0.01,0.937 -0.014,1.876 0,2.813 0.028,1.872 0.1086,3.72 0.2187,5.594 0.7383,12.67 15.1063,16.764 25.75,19.343 54.8532,9.755 108.337,16.995 159.5,18.969 0.1933,-10.807 0.7806,-21.658 0.4376,-32.375 -12.171,2.163 -28.095,1.909 -35.375,-10.062 -4.0325,-10.685 -4.9876,-23.738 0.1562,-34.313 6.7494,-12.156 22.837,-12.051 34.9688,-10.562 0.5255,-6.323 -0.491,-12.937 -0.125,-19.375 -1.4195,-12.213 9.4329,-22.911 21.25,-23.594 8.0099,0.215 16.6772,-0.692 23.9374,3.156 11.3512,6.691 11.4383,21.656 10.625,33.344 0.6415,2.336 -2.5098,8.153 2.1876,6.25 11.3961,-1.516 25.5544,-0.938 32.5312,9.656 4.7806,11.354 5.7395,25.602 -0.5938,36.594 -7.3198,10.858 -22.291,10.067 -33.9062,9.219 -0.52,10.683 -0.3277,21.371 -0.2188,32.062 51.2389,-1.963 104.8077,-9.198 159.75,-18.969 10.6439,-2.578 25.0119,-6.673 25.75,-19.343 0.1097,-1.874 0.1911,-3.722 0.2188,-5.594 0.014,-0.937 0.01,-1.876 0,-2.813 -0.1929,-27.135 -9.1775,-54.056 -30.5312,-81.593 -28.5298,-36.331 -90.731,-43.432 -130.5938,-72.688 -0.3711,-0.227 -0.7539,-0.426 -1.125,-0.656 10.635,-11.619 18.5187,-26.907 22.6562,-44.219 12.2067,-11.901 25.6876,-34.916 25.6876,-56.937 0,-4.861 -0.2197,-8.908 -0.75,-12.157 -24.8476,-4.36 -49.4454,-12.14 -74.3438,-15.124 -8.1036,-1.339 -16.1629,-1.875 -24.1875,-1.813 z" id="path9355" style="fill:#333333;fill-opacity:1;stroke:none" transform="translate(0,-448)"/><path d="m -1497.6897,15551.688 c -3.8437,0 -6.9063,3.063 -6.9063,6.906 l 0,35.375 -31.0312,0 c -3.8098,0 -6.9062,3.062 -6.9062,6.906 l 0,13.781 c 0,3.809 3.0964,6.906 6.9062,6.906 l 31.0312,0 0,72.626 c 0,3.843 3.0626,6.906 6.9063,6.906 l 13.7813,0 c 3.8436,0 6.9062,-3.063 6.9062,-6.906 l 0,-72.626 31.0625,0 c 3.8098,0 6.9063,-3.097 6.9063,-6.906 l 0,-13.781 c 0,-3.844 -3.0965,-6.906 -6.9063,-6.906 l -31.0625,0 0,-35.375 c 0,-3.843 -3.0626,-6.906 -6.9062,-6.906 l -13.7813,0 z" id="path8519" style="fill:#00a1f1;fill-opacity:1;fill-rule:nonzero;stroke:none"/><path d="m -1322.2895,15316.135 c -1.8027,-14.525 -16.2254,-21.6 -28.6071,-25.784 -17.6541,-6.021 -36.8389,-7.892 -55.4795,-8.844 -3.0955,-17.824 -8.6399,-36.261 -23.5388,-47.656 -16.6677,-12.722 -40.4446,-12.96 -60.4458,-12.654 -0.136,0 -0.2722,-0.04 -0.4082,-0.04 -20.1032,-0.307 -44.0842,-0.136 -60.854,12.653 -14.9329,11.395 -20.4433,29.832 -23.5728,47.656 -18.6406,0.987 -37.6893,2.994 -55.4455,8.845 -12.8579,4.217 -26.8384,11.565 -28.6752,26.361 -0.7143,5.817 3.2655,12.076 7.2454,16.022 4.0138,3.98 9.4223,6.429 14.8308,7.756 13.7763,3.367 28.8112,0.918 42.5195,-1.429 34.4238,-5.885 68.3374,-17.143 103.5096,-17.484 0.17,0 0.3062,0.03 0.4422,0.03 35.6484,0.238 70.0382,11.701 104.9042,17.654 13.7083,2.347 28.4371,4.456 42.1794,1.089 10.4088,-2.552 22.8926,-12.144 21.3958,-24.186 z" id="path8517" style="fill:#00a1f1;fill-opacity:1;fill-rule:nonzero;stroke:none"/></g></svg>