<?xml version="1.0" ?><!DOCTYPE svg  PUBLIC '-//W3C//DTD SVG 1.0//EN'  'http://www.w3.org/TR/2001/REC-SVG-20010904/DTD/svg10.dtd'><svg height="513px" style="shape-rendering:geometricPrecision; text-rendering:geometricPrecision; image-rendering:optimizeQuality; fill-rule:evenodd; clip-rule:evenodd" version="1.0" viewBox="0 0 221532 221532" width="513px" xml:space="preserve" xmlns="http://www.w3.org/2000/svg" xmlns:xlink="http://www.w3.org/1999/xlink"><defs><style type="text/css">
   <![CDATA[
    .fil4 {fill:#15BDB2}
    .fil0 {fill:#1A91A1}
    .fil6 {fill:#21D0C3}
    .fil2 {fill:#5DDDD3}
    .fil3 {fill:#DCE3DB}
    .fil5 {fill:#FECE0E}
    .fil1 {fill:white}
   ]]>
  </style></defs><g id="Name"><g id="_330874480"><circle class="fil0" cx="110766" cy="110766" r="110766"/><polygon class="fil1" points="203473,22179 49739,75080 96568,84421 "/><polygon class="fil2" points="49739,75080 96568,84421 127647,66326 "/><polygon class="fil3" points="96568,84421 103822,139621 203473,22179 "/><polygon class="fil4" points="96568,84421 103822,139621 148361,87131 140673,74604 125441,87320 127648,66326 127647,66326 "/><polygon class="fil5" points="203473,22179 113384,97384 103822,139621 "/><polygon class="fil6" points="125441,87319 113384,97384 103822,139621 148361,87131 140673,74604 125441,87320 "/><polygon class="fil1" points="172828,127002 203473,22179 113384,97384 "/><polygon class="fil2" points="125373,87320 113317,97384 172761,127003 140606,74605 125373,87320 "/><path class="fil1" d="M19949 155170l62249 -60645 2754 3619 -65004 57026zm73008 42446l56388 -64812 3969 1808 -60357 63004zm-47039 -6360l49803 -49646 2878 2465 -52680 47181z"/></g></g></svg>