<?xml version="1.0" encoding="utf-8"?>
<!-- Generator: Adobe Illustrator 15.1.0, SVG Export Plug-In . SVG Version: 6.00 Build 0)  -->
<!DOCTYPE svg PUBLIC "-//W3C//DTD SVG 1.1//EN" "http://www.w3.org/Graphics/SVG/1.1/DTD/svg11.dtd">
<svg version="1.1" id="Layer_1" xmlns="http://www.w3.org/2000/svg" xmlns:xlink="http://www.w3.org/1999/xlink" x="0px" y="0px"
	 width="512px" height="512px" viewBox="0 0 512 512" enable-background="new 0 0 512 512" xml:space="preserve">
<g>
	<g>
		<g>
			<g>
				<polygon fill="#B54F2A" points="369.451,314.751 308.895,354.476 312.813,389.999 373.371,350.272 				"/>
				<g>
					<polygon fill="#D95D31" points="312.811,389.999 181.418,344.832 177.491,309.311 308.895,354.476 					"/>
				</g>
				<path fill="#FD6B38" d="M263.307,278.273l-25.256-8.683l-60.56,39.719l64.684,22.232l66.718,22.933l60.559-39.719
					L263.307,278.273z"/>
				<g opacity="0.3">
					<g>
						<polygon points="262.585,288.383 254.218,293.875 245.42,290.852 253.79,285.365 						"/>
					</g>
					<g>
						<polygon points="244.991,282.34 220.392,298.475 211.593,295.452 236.192,279.314 						"/>
					</g>
					<g>
						<polygon points="213.542,302.971 205.167,308.46 196.371,305.438 204.746,299.945 						"/>
					</g>
					<g>
						<polygon points="297.792,300.488 289.421,305.971 280.621,302.953 288.99,297.461 						"/>
					</g>
					<g>
						<polygon points="280.184,294.436 255.587,310.574 246.789,307.548 271.384,291.411 						"/>
					</g>
					<g>
						<polygon points="247.371,298.367 222.765,314.509 213.966,311.487 238.57,295.348 						"/>
					</g>
					<g>
						<polygon points="248.735,315.064 240.359,320.558 231.563,317.533 239.938,312.041 						"/>
					</g>
					<g>
						<polygon points="332.979,312.585 324.617,318.07 315.814,315.049 324.184,309.556 						"/>
					</g>
					<g>
						<polygon points="315.384,306.531 290.784,322.669 281.989,319.646 306.589,303.51 						"/>
					</g>
					<g>
						<polygon points="282.572,310.471 257.969,326.607 249.168,323.589 273.773,307.445 						"/>
					</g>
					<g>
						<polygon points="283.938,327.16 275.563,332.657 266.766,329.632 275.141,324.14 						"/>
					</g>
					<g>
						<polygon points="350.58,318.627 325.979,334.767 317.182,331.739 341.779,315.604 						"/>
					</g>
					<g>
						<polygon points="317.766,322.563 293.162,338.706 284.363,335.682 308.966,319.537 						"/>
					</g>
					<g>
						<polygon points="319.132,339.256 310.754,344.752 301.958,341.728 310.336,336.235 						"/>
					</g>
				</g>
			</g>
			<polygon opacity="0.3" enable-background="new    " points="263.307,278.273 242.175,331.543 190.905,348.098 181.418,344.832 
				177.491,309.311 238.051,269.592 			"/>
			<g>
				<polygon fill="#B54F2A" points="230.602,227.624 207.298,296.273 232.22,321.848 255.524,253.199 				"/>
				<g>
					<g>
						<polygon fill="#D95D31" points="207.298,296.273 232.22,321.848 100.92,367.3 76,341.728 						"/>
					</g>
				</g>
				<path fill="#FD6B38" d="M99.307,273.074L76,341.728l131.298-45.452l23.304-68.651L99.307,273.074z"/>
				<g opacity="0.3">
					<g>
						<polygon points="130.191,272.752 126.971,282.24 118.175,285.289 121.399,275.798 						"/>
					</g>
					<g>
						<polygon points="112.607,278.842 103.138,306.729 94.349,309.772 103.815,281.883 						"/>
					</g>
					<g>
						<polygon points="100.504,314.496 97.281,323.986 88.492,327.029 91.712,317.536 						"/>
					</g>
					<g>
						<polygon points="165.366,260.58 162.146,270.068 153.353,273.107 156.575,263.623 						"/>
					</g>
					<g>
						<polygon points="147.776,266.666 138.307,294.557 129.515,297.6 138.984,269.715 						"/>
					</g>
					<g>
						<polygon points="124.333,290.01 114.865,317.901 106.073,320.945 115.54,293.055 						"/>
					</g>
					<g>
						<polygon points="135.673,302.32 132.45,311.813 123.658,314.856 126.878,305.365 						"/>
					</g>
					<g>
						<polygon points="200.532,248.405 197.312,257.895 188.519,260.938 191.74,251.453 						"/>
					</g>
					<g>
						<polygon points="182.947,254.493 173.48,282.38 164.69,285.422 174.155,257.536 						"/>
					</g>
					<g>
						<polygon points="159.508,277.829 150.04,305.727 141.248,308.764 150.72,280.873 						"/>
					</g>
					<g>
						<polygon points="170.846,290.145 167.625,299.637 158.829,302.682 162.058,293.184 						"/>
					</g>
					<g>
						<polygon points="218.117,242.321 208.646,270.205 199.856,273.246 209.324,245.364 						"/>
					</g>
					<g>
						<polygon points="194.678,265.656 185.206,293.552 176.414,296.593 185.886,268.701 						"/>
					</g>
					<g>
						<polygon points="206.014,277.967 202.791,287.466 193.998,290.504 197.222,281.012 						"/>
					</g>
				</g>
			</g>
		</g>
		<path opacity="0.3" enable-background="new    " d="M254.657,237.371l-30.879,10.365l-123.57,41.479
			c-0.804,0.273-1.701-0.066-2.126-0.806c-0.423-0.749-0.244-1.688,0.395-2.265l24.499-21.261l105.949-36.679l1.415,0.189
			l2.766,0.366c0.012-0.014,0.012-0.014,0.012-0.014l20.998,2.853c1.361,0.192,2.422,1.297,2.558,2.674
			C256.811,235.654,255.965,236.934,254.657,237.371z"/>
		<g>
			<path fill="#F8FEFF" d="M254.538,232.96c0.04,1.376-0.885,2.604-2.219,2.948l-157.64,41.089
				c-0.828,0.215-1.695-0.179-2.067-0.951c-0.37-0.774-0.136-1.703,0.547-2.226l76.878-57.973c1.757-1.324,3.982-1.822,6.135-1.384
				l34.349,7.072l20.885,4.298c0.013-0.003,0.013-0.003,0.013-0.003l20.749,4.277C253.517,230.393,254.501,231.567,254.538,232.96z"
				/>
			<path opacity="0.3" enable-background="new    " d="M254.538,232.96c0.04,1.376-0.885,2.604-2.219,2.948l-157.64,41.089
				c-0.828,0.215-1.695-0.179-2.067-0.951l99.747-40.366l23.464-13.052l15.583,3.207c0.013-0.003,0.013-0.003,0.013-0.003
				l20.749,4.277C253.517,230.393,254.501,231.567,254.538,232.96z"/>
			<g>
				<path fill="#0E2947" d="M272.509,122.085c0,0-3.631,3.596-6.06,4.379c-15.178,7.095-28.883,16.994-40.385,29.194
					c0,0.003,0.007,0.009,0.01,0.015c-1.499,2.026-3.597,3.531-6,4.306c3.353,4.657,6.709,9.313,10.061,13.975
					c1.495-2.041,3.583-3.556,5.975-4.346c0.003,0.006,0.009,0.013,0.015,0.016c15.179-7.088,28.875-16.99,40.384-29.187
					c1.507-2.063,6.06-4.376,6.06-4.376c0.836-0.606-0.736-4.226-3.518-8.083C276.275,124.123,273.343,121.483,272.509,122.085z"/>
				<path fill="#DFE5E6" d="M272.509,122.085c0,0-2.173,2.15-4.28,3.486c1.551,1.847,3.293,4.09,5.074,6.562
					c1.783,2.471,3.356,4.837,4.612,6.895c1.935-1.584,4.653-2.968,4.653-2.968c0.836-0.606-0.736-4.226-3.518-8.083
					C276.275,124.123,273.343,121.483,272.509,122.085z"/>
				<path opacity="0.4" fill="#080808" enable-background="new    " d="M279.883,132.323c0,0-4.552,2.315-6.06,4.379
					c-11.505,12.193-25.209,22.095-40.391,29.19c-0.003-0.003-0.007-0.014-0.013-0.02c-2.393,0.787-4.479,2.31-5.97,4.346
					c0.897,1.245,1.794,2.492,2.687,3.736c1.495-2.041,3.583-3.556,5.975-4.346c0.003,0.006,0.009,0.013,0.015,0.016
					c15.179-7.088,28.875-16.99,40.384-29.187c1.508-2.063,6.059-4.376,6.059-4.376c0.836-0.606-0.735-4.226-3.517-8.083
					c-0.467-0.644-0.937-1.257-1.401-1.825C279.596,129.231,280.574,131.819,279.883,132.323z"/>
				<path fill="#939598" d="M226.622,165.872c2.779,3.855,4.352,7.477,3.514,8.082c-0.834,0.603-3.761-2.034-6.544-5.896
					c-2.779-3.857-4.351-7.477-3.517-8.08C220.913,159.377,223.843,162.011,226.622,165.872z"/>
			</g>
			<path fill="#88898A" d="M213.979,188.526c-0.685-1.336-1.008-2.839-0.894-4.375c0.163-2.213,1.167-4.231,2.843-5.687
				l10.908-9.463c0.186-0.163,0.297-0.391,0.313-0.631c0.02-0.245-0.06-0.487-0.221-0.672l-2.555-2.955
				c-0.332-0.386-0.916-0.426-1.302-0.093l-10.905,9.463c-2.836,2.461-4.543,5.879-4.81,9.629
				c-0.271,3.745,0.933,7.375,3.389,10.214l2.687,3.102l6.367,7.984c1.381,1.734,2.008,3.904,1.764,6.111
				c-0.249,2.206-1.34,4.186-3.07,5.569l-12.452,9.968l3.59,4.496l12.452-9.965c2.927-2.349,4.773-5.694,5.188-9.429
				c0.415-3.732-0.643-7.409-2.986-10.346L213.979,188.526z"/>
			<path opacity="0.8" fill="#FFFFFF" enable-background="new    " d="M208.771,184.717c0.267-3.748,1.975-7.167,4.811-9.628
				l10.908-9.462c0.137-0.119,0.307-0.175,0.475-0.199l-0.59-0.686c-0.332-0.383-0.912-0.426-1.299-0.093l-10.909,9.463
				c-2.836,2.461-4.547,5.879-4.81,9.629c-0.271,3.748,0.933,7.375,3.389,10.214l2.687,3.102
				C211.282,193.456,208.335,190.749,208.771,184.717z"/>
			<g>
				<path fill="#88898A" d="M231.406,225.834c-0.067,0.04-0.129,0.076-0.206,0.096l-38.333,9.981
					c-0.204,0.06-0.408-0.036-0.508-0.232c-0.092-0.188-0.037-0.414,0.139-0.533l18.023-13.611L231.406,225.834z"/>
				<path opacity="0.3" fill="#080808" enable-background="new    " d="M231.406,225.834c-0.067,0.04-0.129,0.076-0.206,0.096
					l-38.333,9.981c-0.204,0.06-0.408-0.036-0.508-0.232c-0.092-0.188-0.037-0.414,0.139-0.533l26.906-11.784L231.406,225.834z"/>
			</g>
		</g>
		<g>
			<g>
				<g>
					<g>
						<path fill="#FFCC00" d="M398.001,354.445c-5.367,1.191-8.378,0.979-13.399-1.215c-26.742-15.503-50.803-23.844-79.26-33.422
							c-15.486-5.218-29.54-16.675-41.063-28.297c0,0-24.671-26.464-33.049-35.137c-4.796-4.969-14.88-21.642-12.694-28.193
							c2.183-6.554,9.084-8.797,15.929-9.663c5.951-0.753,12.418-0.22,16.444,0.275c2.399,0.312,3.922,0.604,3.922,0.604
							l9.095,7.294L393.324,330.51l12.648,10.148c0,0,0.301,1.771,0.061,4.066C405.668,348.3,404.023,353.113,398.001,354.445z"/>
						<path fill="#E8B100" d="M406.033,344.726c-16.397,1.008-35.859-9.314-69.489-26.923c-14.497-7.58-30.188-20.388-41.709-32.017
							c0,0-25.409-25.798-33.047-35.127c-11.078-13.529-14.222-25.812-10.878-31.863c2.399,0.312,3.922,0.604,3.922,0.604
							l19.423,31.077c57.155,61.17,90.759,72.124,110.134,81.781l21.584,8.401C405.973,340.658,406.273,342.43,406.033,344.726z"/>
						<path fill="#FFFEA9" d="M390.246,353.087c-27.09-16.123-51.447-24.952-80.255-35.13
							c-15.683-5.545-29.935-17.345-41.607-29.271c0,0-25.018-27.125-33.51-36.024c-4.858-5.096-15.099-22.092-12.903-28.664
							c0.163-0.484,0.356-0.936,0.566-1.37c-1.795,1.376-3.213,3.181-4.001,5.556c-2.186,6.551,7.901,23.23,12.694,28.193
							c8.377,8.673,33.049,35.138,33.049,35.138c11.513,11.618,25.576,23.074,41.063,28.296
							c28.457,9.584,52.518,17.913,79.253,33.422c4.232,1.849,7.038,2.287,11.011,1.673
							C393.955,354.588,392.264,353.999,390.246,353.087z"/>
						<g>
							<path fill="#FFCC00" d="M394.279,340.484c-11.754-4.009-32.86-12.182-53.59-25.092
								c-71.938-44.841-89.382-91.748-89.382-91.748c39.302-47.396,97.664-63.936,142.416-28.295
								c5.637,4.537,11.613,9.53,16.377,15.225C432.698,256.611,429.844,292.609,394.279,340.484z"/>
							<path fill="#E8B100" d="M403.666,343.443c0,0-3.536-0.975-9.387-2.959c33.299-45.142,37.822-83.537,15.82-129.909
								c-0.061-0.116-0.771-1.599-1.067-2.218c1.538,1.423,3.018,2.869,4.424,4.345
								C445.736,246.377,444.105,293.839,403.666,343.443z"/>
						</g>
						<path opacity="0.3" fill="#FFFEA9" enable-background="new    " d="M395.857,197.084c-0.717-0.585-1.426-1.161-2.135-1.734
							c-44.752-35.64-103.113-19.101-142.416,28.295c0,0,8.989,24.169,40.666,54.388
							C308.333,240.245,341.889,176.856,395.857,197.084z"/>
						<path opacity="0.5" fill="#AB8819" enable-background="new    " d="M412.919,213.256c-3.005-2.163-6.767-5.035-9.983-6.236
							c-19.408-7.16-40.045,0.695-50.807,8.561c-5.668,3.988-11.061,8.847-15.221,7.752c-3.82-1.096-10.969-7.45-3.116-13.057
							C386.639,172.491,414.271,214.241,412.919,213.256z"/>
						<path fill="#FFCC00" d="M413.456,212.702c-1.161-0.886-2.335-1.724-3.529-2.491c-3.098-2.026-6.817-5.348-10.036-6.545
							c-19.408-7.156-40.048,0.697-50.804,8.562c-5.668,3.994-11.065,8.847-15.229,7.752c-3.821-1.095-5.635-6.812,0.879-13.936
							c13.014-13.255,29.865-19.28,53.983-13.14C390.293,193.306,409.934,199.685,413.456,212.702z"/>
						<path fill="#FFFEA9" d="M336.246,207.53c13.63-13.427,31.324-19.193,56.699-12.011c0.811,0.229,6.177,2.099,11.888,5.552
							c-6.819-5.25-15.11-7.918-16.106-8.176c-24.117-6.137-40.977-0.105-53.983,13.146c-5.461,5.961-5.058,10.932-2.544,13.036
							C331.098,216.368,331.841,212.205,336.246,207.53z"/>
					</g>
					<g>
						<polygon fill="#E39400" points="324.256,310.242 322.793,303.824 338.666,290.898 359.253,304.803 359.355,310.36 
							340.213,297.368 						"/>
						<polygon fill="#E8B100" points="351.591,325.382 324.256,310.242 340.213,297.368 359.355,310.36 						"/>
					</g>
					<g>
						<polygon fill="#E39400" points="269.273,204.926 257.066,205.736 266.266,213.393 						"/>
						<polygon fill="#E8B100" points="257.066,205.736 243.95,221.556 253.146,229.212 266.266,213.393 						"/>
					</g>
				</g>
			</g>
			<path fill="#FFFEA9" d="M311.471,202.67c9.783-5.446,19.574-9.599,28.241-11.759l-4.793-6.392
				c-10.198,2.518-20.616,6.647-30.687,12.128L311.471,202.67z"/>
			<path fill="#FFFEA9" d="M300.439,198.783c-14.315,8.363-27.74,19.468-38.554,32.565l5.25,7.112
				c10.167-12.425,25.179-24.531,40.569-33.629L300.439,198.783z"/>
		</g>
	</g>
</g>
</svg>
