<?xml version="1.0" ?><!DOCTYPE svg  PUBLIC '-//W3C//DTD SVG 1.1//EN'  'http://www.w3.org/Graphics/SVG/1.1/DTD/svg11.dtd'><svg enable-background="new 0 0 512 512" height="512px" id="Layer_1" version="1.1" viewBox="0 0 512 512" width="512px" xml:space="preserve" xmlns="http://www.w3.org/2000/svg" xmlns:xlink="http://www.w3.org/1999/xlink"><path d="M474.164,470.243c0-44.804-15.516-89.827-45.051-104.765C399.582,350.541,354.016,336,316.465,313H196.318  c-37.553,23-83.121,37.541-112.641,52.479c-29.523,14.938-45.059,59.85-45.059,104.653c57.793,25.966,169.789,29.919,217.771,29.919  S416.369,496.209,474.164,470.243" fill="#FFFFFF"/><path d="M313.633,324c23.166,0,48.961,24.203,71.813,33.773c14.404,6.024,28,11.68,38.994,17.23  c22.336,11.301,37.723,46.338,39.227,88.427c-49.131,19.353-138.238,26.316-207.275,26.316s-158.135-6.981-207.277-26.334  c1.504-42.079,16.893-77.152,39.238-88.453c10.992-5.55,24.598-11.161,38.994-17.196C150.199,348.205,175.992,337,199.148,324H314   M316,313H196.318c-37.553,23-83.121,37.541-112.641,52.479c-29.523,14.928-45.059,59.85-45.059,104.653  c57.793,25.966,169.789,29.919,217.771,29.919s159.979-3.869,217.773-29.835c0-44.804-15.516-89.824-45.051-104.752  C399.582,350.526,354.016,336,316.465,313" fill="#ACACAC"/><path d="M319,294.193c0,39.698-28.143,71.102-62.5,71.102S194,333.892,194,294.193V199h125V294.193z" fill="#FBAD3E"/><path d="M380.834,165.549c0-16.322-9.153-24.481-17.378-24.481c-3.533,0-7.456-1.526-13.456-5.176V64.566  c0,0-10.539-51.851-93.5-51.851c-82.963,0-93.5,51.851-93.5,51.851v71.325c-6,3.649-10.032,5.176-13.567,5.176  c-8.221,0-17.499,8.159-17.499,24.481c0,24.473,26.865,50.099,41.486,63.329c11.232,43.622,42.111,74.196,82.967,74.196  c40.848,0,71.742-30.574,82.963-74.196C353.973,215.647,380.834,190.021,380.834,165.549" fill="#FFCA65"/><polygon fill="#7B7B7B" points="266.75,396 246.029,396 225,375.666 225,355 288,355 288,375.666 "/><rect fill="#7B7B7B" height="124" width="21" x="246" y="376"/><path d="M318.611,303.074c0,0,20.74,12.588,20.74,20.74c0,40.802-10.371,93.331-10.371,93.331  s-18.957-33.318-51.85-41.479c0,0,20.387-12.072,28.609-28.397C313.953,330.955,318.611,303.074,318.611,303.074" fill="#ACACAC"/><path d="M194.17,303.074c0,0-20.742,12.588-20.742,20.74c0,40.802,10.371,93.331,10.371,93.331  s18.959-33.318,51.852-41.479c0,0-20.387-12.072-28.609-28.397C198.828,330.955,194.17,303.074,194.17,303.074" fill="#ACACAC"/><path d="M318.611,292.704c0,0,20.74,12.588,20.74,20.74c0,40.802-10.371,93.331-10.371,93.331  s-18.957-33.318-51.85-41.48c0,0,20.387-12.071,28.609-28.396C313.953,320.583,318.611,292.704,318.611,292.704" fill="#FFFFFF"/><path d="M194.17,292.704c0,0-20.742,12.588-20.742,20.74c0,40.802,10.371,93.331,10.371,93.331  s18.959-33.318,51.852-41.48c0,0-20.387-12.071-28.609-28.396C198.828,320.583,194.17,292.704,194.17,292.704" fill="#FFFFFF"/><path d="M225,262v-11h63v11h18.408c-5.775-18-25.885-31.11-50.018-31.11S212.15,244,206.373,262H225z" fill="#ACACAC"/><rect fill="#7B7B7B" height="51" width="62" x="267" y="148"/><rect fill="#7B7B7B" height="51" width="62" x="184" y="148"/><rect fill="#7B7B7B" height="21" width="21" x="246" y="158"/><rect fill="#FFCA65" height="31" width="42" x="194" y="158"/><rect fill="#FFCA65" height="31" width="42" x="277" y="158"/><path d="M194.17,64.562c0-20.147,10.444-32.108,20.896-46.479C152.845,30.9,153,92.107,153,92.107v57.115l20,39.78  v-51.851c9,0,13.706-31.11,13.706-31.11S194.17,106.042,194.17,64.562" fill="#ACACAC"/><path d="M318.611,64.562c0-20.147-10.337-32.108-20.786-46.479C360.046,30.9,360,92.107,360,92.107v57.115l-21,39.78  v-51.851c-9,0-13.314-31.11-13.314-31.11S318.611,106.042,318.611,64.562" fill="#ACACAC"/></svg>