<?xml version="1.0" encoding="utf-8"?>
<!-- Generator: Adobe Illustrator 15.1.0, SVG Export Plug-In . SVG Version: 6.00 Build 0)  -->
<!DOCTYPE svg PUBLIC "-//W3C//DTD SVG 1.1//EN" "http://www.w3.org/Graphics/SVG/1.1/DTD/svg11.dtd">
<svg version="1.1" id="Layer_1" xmlns="http://www.w3.org/2000/svg" xmlns:xlink="http://www.w3.org/1999/xlink" x="0px" y="0px"
	 width="128px" height="128px" viewBox="0 0 128 128" enable-background="new 0 0 128 128" xml:space="preserve">
<g>
	<path fill="#E6E6E6" d="M43.441,71.5c-0.649,0-1.302-0.254-1.792-0.757c-4.104-4.22-7.49-13.286,0-20.986
		C52.934,38.151,53.441,26.611,53.441,26.5c0-1.382,1.117-2.5,2.5-2.5c2.401,0,4.58,1.958,6.469,5.82
		c4.316,8.828,6.666,27.075-1.996,38.213c-0.85,1.089-2.422,1.283-3.506,0.438c-1.092-0.848-10.733,1.357-11.724,2.319
		C44.698,71.266,44.071,71.5,43.441,71.5z"/>
	<g>
		<path fill="#D9D9D9" d="M42.184,70.792c-0.076,0.074-0.161,0.132-0.244,0.194c0.444,0.336,0.971,0.514,1.5,0.514
			c0.63,0,1.257-0.234,1.743-0.708c0.678-0.658,5.4-1.896,8.667-2.343C52.576,67.682,43.164,69.842,42.184,70.792z"/>
		<path fill="#D9D9D9" d="M62.41,29.82C60.521,25.958,58.344,24,55.941,24c-0.467,0-0.897,0.136-1.271,0.357
			c1.727,0.724,3.314,2.55,4.739,5.463c4.315,8.828,6.666,27.074-1.996,38.213c-0.142,0.18-0.306,0.326-0.479,0.456
			c1.084,0.821,2.637,0.624,3.479-0.456C69.076,56.896,66.727,38.648,62.41,29.82z"/>
	</g>
	<path fill="#D9D9D9" d="M60.414,68.033c3.048-3.919,4.729-8.718,5.443-13.677C60.866,59.334,52.616,67,48.441,67
		c-0.789,0-1.719-0.814-2.703-1.682c-1.359-1.194-3.654-2.775-6.988-2.775c-0.437,0-0.863,0.045-1.275,0.127
		c0.63,3.295,2.328,6.176,4.174,8.073c0.49,0.503,1.143,0.757,1.792,0.757c0.63,0,1.257-0.234,1.743-0.708
		c0.991-0.962,10.632-3.167,11.724-2.319C57.992,69.316,59.564,69.122,60.414,68.033z"/>
	<path fill="#EDEDED" d="M91.891,67.677c6.375-10.41,6.906-25.734,1.299-37.271c-0.393-0.813-1.19-1.348-2.098-1.401
		c-0.912-0.081-1.76,0.378-2.25,1.136C83.496,38.39,78.393,43.588,71.93,50.167l-3.166,3.237C65.014,57.262,53.607,69,48.441,69
		c-0.789,0-1.719-0.814-2.703-1.682c-1.359-1.194-3.654-2.775-6.988-2.775c-3.566,0-6.458,2.893-6.458,6.458
		s2.892,6.458,6.458,6.458c0.579,0,1.137-0.083,1.671-0.227c0.94,1.429,1.17,3.365,1.97,5.246c1.523,3.58,3.579,8.403,11.9,8.967
		c0.127,0.309,0.248,0.621,0.371,0.934C57.182,98.736,60.521,104,75.941,104c4.024,0,7.197-0.711,9.418-2.114
		c2.271-1.433,3.522-3.569,3.522-6.021c0-4.902-4.979-9.365-10.44-9.365c-4.955,0-8.479-1.958-9.609-5.15
		C81.57,80.232,88.377,73.414,91.891,67.677z"/>
	<path fill="#D9D9D9" d="M37.479,77.332c-0.021-0.032-0.037-0.066-0.058-0.1c-0.063,0.017-0.128,0.021-0.191,0.039
		C37.313,77.292,37.394,77.314,37.479,77.332z"/>
	<path fill="#D9D9D9" d="M42.738,67.318C45,69.688,47.746,69.255,48.441,69c-1.274-0.249-2.145-1.189-2.703-1.682
		c-1.359-1.194-3.654-2.775-6.988-2.775c-0.468,0-0.924,0.053-1.363,0.146C39.843,65.096,41.706,66.236,42.738,67.318z"/>
	<path fill="#D9D9D9" d="M91.891,67.677c6.375-10.41,6.906-25.734,1.299-37.271c-0.393-0.813-1.19-1.348-2.098-1.401
		c-0.613-0.055-1.188,0.149-1.652,0.511c0.313,0.234,0.576,0.529,0.75,0.892c5.607,11.535,5.076,26.859-1.299,37.271
		c-3.514,5.735-10.32,12.557-23.059,13.672c1.133,3.191,4.654,5.149,9.609,5.149c5.463,0,10.44,4.463,10.44,9.365
		c0,2.448-1.252,4.588-3.522,6.021c-1.989,1.256-4.748,1.953-8.194,2.086c0.575,0.019,1.163,0.027,1.776,0.027
		c4.024,0,7.197-0.711,9.418-2.113c2.271-1.434,3.522-3.57,3.522-6.021c0-4.902-4.979-9.365-10.44-9.365
		c-4.955,0-8.479-1.958-9.609-5.149C81.57,80.232,88.377,73.414,91.891,67.677z"/>
	<path fill="#E78244" d="M32.414,72.256l-5.727,5.041c0,0,6.31-1.746,7.185-1.965C34.953,74.063,33.594,72.256,32.414,72.256z"/>
	<circle fill="#2D4452" cx="36.75" cy="70.063" r="1"/>
</g>
</svg>
