<?xml version="1.0" encoding="utf-8"?>
<!-- Generator: Adobe Illustrator 15.1.0, SVG Export Plug-In . SVG Version: 6.00 Build 0)  -->
<!DOCTYPE svg PUBLIC "-//W3C//DTD SVG 1.1//EN" "http://www.w3.org/Graphics/SVG/1.1/DTD/svg11.dtd">
<svg version="1.1" id="Layer_1" xmlns="http://www.w3.org/2000/svg" xmlns:xlink="http://www.w3.org/1999/xlink" x="0px" y="0px"
	 width="512px" height="512px" viewBox="0 0 512 512" enable-background="new 0 0 512 512" xml:space="preserve">
<g>
	<g>
		<rect x="98.4" y="98.4" fill="#E3E6E8" width="289.2" height="180.4"/>
		<path fill="#FFC717" stroke="#FFC717" stroke-width="0.9844" stroke-miterlimit="10" d="M294.4,304.4V242h8v62.4H379.6V242h8v62.4
			h26V218c0-8-6.399-14.4-14.399-14.4h-116c-8,0-14.4,6.4-14.4,14.4v86.4H294.4z"/>
		<circle fill="#EC5552" cx="341.2" cy="150.8" r="32.8"/>
		<circle fill="#5D5E61" cx="295.6" cy="347.2" r="22.4"/>
		<path fill="#E3E6E8" d="M334.8,413.6h-78.4V394c0-6.4,5.2-11.6,11.6-11.6h55.6c6.4,0,11.601,5.199,11.601,11.6v19.6H334.8z"/>
		<circle fill="#5D5E61" cx="216.8" cy="347.2" r="22.4"/>
		<path fill="#FBD839" stroke="#FFC717" stroke-width="0.9844" stroke-miterlimit="10" d="M256,413.6h-78.4V394
			c0-6.4,5.2-11.6,11.6-11.6h55.6c6.4,0,11.6,5.199,11.6,11.6v19.6H256z"/>
		<circle fill="#5D5E61" cx="137.6" cy="347.2" r="22.4"/>
		<path fill="#E3E6E8" d="M177.2,413.6H98.4V394c0-6.4,5.2-11.6,11.6-11.6h55.6c6.4,0,11.6,5.199,11.6,11.6V413.6L177.2,413.6z"/>
		<circle fill="#5D5E61" cx="374.4" cy="347.2" r="22.4"/>
		<path fill="#FBD839" stroke="#FFC717" stroke-width="0.9844" stroke-miterlimit="10" d="M413.6,413.6h-78.8V394
			c0-6.4,5.2-11.6,11.601-11.6H402c6.4,0,11.6,5.199,11.6,11.6V413.6z"/>
	</g>
</g>
</svg>
